<?xml version="1.0" encoding="UTF-8" standalone="no"?>
<svg
   width="210mm"
   height="148mm"
   viewBox="0 0 210 148.00001"
   version="1.1"
   id="svg8"
   xmlns="http://www.w3.org/2000/svg"
   xmlns:svg="http://www.w3.org/2000/svg"
   xmlns:rdf="http://www.w3.org/1999/02/22-rdf-syntax-ns#"
   xmlns:cc="http://creativecommons.org/ns#"
   xmlns:dc="http://purl.org/dc/elements/1.1/">
  <defs
     id="defs2" />
  <metadata
     id="metadata5">
    <rdf:RDF>
      <cc:Work
         rdf:about="">
        <dc:format>image/svg+xml</dc:format>
        <dc:type
           rdf:resource="http://purl.org/dc/dcmitype/StillImage" />
      </cc:Work>
    </rdf:RDF>
  </metadata>
  <g
     id="layer1"
     transform="translate(-1545.9998,-326.44195)">
    <path
       id="path377"
       style="font-variation-settings:normal;fill:none;fill-opacity:1;fill-rule:evenodd;stroke:#b8b8b8;stroke-width:0.793747;stroke-linecap:butt;stroke-linejoin:miter;stroke-miterlimit:4;stroke-dasharray:none;stroke-dashoffset:0;stroke-opacity:1;stop-color:#000000"
       d="m 1613.1348,339.11391 v 14.66086 a 0.77328862,0.76505281 0 0 0 0.7733,0.76505 l 20.9971,5e-5 a 0.77328515,0.76504942 0 0 0 0.7733,-0.76505 v -12.2468 a 0.77328691,0.76505111 0 0 0 -0.7733,-0.76505 h -8.9069 a 1.449852,1.4344106 0 0 1 -1.2041,-0.63535 l -0.7752,-1.14341 a 1.449852,1.4344106 0 0 0 -1.2041,-0.63536 h -8.9068 a 0.77328691,0.76505111 0 0 0 -0.7733,0.76506 z" />
    <path
       id="path378"
       style="font-variation-settings:normal;fill:none;fill-opacity:1;fill-rule:evenodd;stroke:#b8b8b8;stroke-width:0.793747;stroke-linecap:butt;stroke-linejoin:miter;stroke-miterlimit:4;stroke-dasharray:none;stroke-dashoffset:0;stroke-opacity:1;stop-color:#000000"
       d="m 1629.0099,360.28059 v 14.66086 a 0.77328862,0.76505281 0 0 0 0.7733,0.76505 l 20.9971,5e-5 a 0.77328515,0.76504942 0 0 0 0.7733,-0.76505 v -12.2468 a 0.77328691,0.76505111 0 0 0 -0.7733,-0.76505 h -8.9069 a 1.449852,1.4344106 0 0 1 -1.2041,-0.63535 l -0.7752,-1.14341 a 1.449852,1.4344106 0 0 0 -1.2041,-0.63536 h -8.9068 a 0.77328691,0.76505111 0 0 0 -0.7733,0.76506 z" />
    <path
       id="path379"
       style="font-variation-settings:normal;fill:none;fill-opacity:1;fill-rule:evenodd;stroke:#b8b8b8;stroke-width:0.793747;stroke-linecap:butt;stroke-linejoin:miter;stroke-miterlimit:4;stroke-dasharray:none;stroke-dashoffset:0;stroke-opacity:1;stop-color:#000000"
       d="m 1629.0099,402.61395 v 14.66086 a 0.77328862,0.76505281 0 0 0 0.7733,0.76505 l 20.9971,5e-5 a 0.77328515,0.76504942 0 0 0 0.7733,-0.76505 v -12.2468 a 0.77328691,0.76505111 0 0 0 -0.7733,-0.76505 h -8.9069 a 1.449852,1.4344106 0 0 1 -1.2041,-0.63535 l -0.7752,-1.14341 a 1.449852,1.4344106 0 0 0 -1.2041,-0.63536 h -8.9068 a 0.77328691,0.76505111 0 0 0 -0.7733,0.76506 z" />
    <path
       id="rect379"
       style="fill:none;fill-rule:evenodd;stroke:#b8b8b8;stroke-width:0.79375;stop-color:#000000"
       d="m 1646.0918,380.6821 h 6.7409 c 0.6688,0 3.3238,2.65504 3.3238,3.32378 v 11.66011 c 0,0.66873 -0.5383,1.2071 -1.2071,1.2071 h -8.8576 c -0.6688,0 -1.2071,-0.53837 -1.2071,-1.2071 v -13.77678 c 0,-0.66874 0.5383,-1.20711 1.2071,-1.20711 z" />
    <path
       style="fill:none;fill-opacity:1;stroke:#b8b8b8;stroke-width:0.79375;stroke-linecap:round;stroke-linejoin:round;stroke-dasharray:none;stroke-opacity:1;paint-order:normal"
       d="m 1621.3331,359.295 v 50.07619 h 3.9405"
       id="path381" />
    <path
       style="fill:none;fill-opacity:1;stroke:#b8b8b8;stroke-width:0.79375;stroke-linecap:round;stroke-linejoin:round;stroke-dasharray:none;stroke-opacity:1;paint-order:normal"
       d="m 1621.4401,367.61103 h 3.7264"
       id="path382" />
    <path
       style="fill:none;fill-opacity:1;stroke:#b8b8b8;stroke-width:0.79375;stroke-linecap:round;stroke-linejoin:round;stroke-dasharray:none;stroke-opacity:1;paint-order:normal"
       d="m 1637.2082,380.46168 v 7.74285 h 3.9405"
       id="path383" />
    <path
       style="fill:none;fill-opacity:1;stroke:#b8b8b8;stroke-width:0.79375;stroke-linecap:round;stroke-linejoin:round;stroke-dasharray:none;stroke-opacity:1;paint-order:normal"
       d="m 1637.2082,430.53789 h 3.9405"
       id="path384" />
    <path
       style="fill:none;fill-opacity:1;stroke:#b8b8b8;stroke-width:0.79375;stroke-linecap:round;stroke-linejoin:round;stroke-dasharray:none;stroke-opacity:1;paint-order:normal"
       d="m 1637.2082,422.79504 v 28.90953 h 3.9405"
       id="path385" />
    <path
       style="fill:none;fill-opacity:1;stroke:#b8b8b8;stroke-width:0.79375;stroke-linecap:round;stroke-linejoin:round;stroke-dasharray:none;stroke-opacity:1;paint-order:normal"
       d="m 1384.6868,347.65759 c 2.346,-2.07624 4.692,-4.1525 5.8018,-3.65904 1.1098,0.49346 0.9834,3.55652 2.4052,3.59735 1.4218,0.0408 4.3917,-2.9405 5.9677,-3.42515 1.576,-0.48466 1.758,1.52736 2.6496,1.99629 0.8916,0.46892 2.4926,-0.6052 2.9469,0.15132 0.4544,0.75652 -0.2382,3.3437 0.9172,3.09814 1.1554,-0.24555 4.1585,-3.3237 5.8696,-4.22178 1.7111,-0.89809 2.1301,0.38402 3.1568,0.69178 1.0268,0.30775 2.6613,-0.35879 4.2959,-1.02537"
       id="path391"
       transform="translate(255.94065)" />
    <path
       style="fill:none;fill-opacity:1;stroke:#b8b8b8;stroke-width:0.79375;stroke-linecap:round;stroke-linejoin:round;stroke-dasharray:none;stroke-opacity:1;paint-order:normal"
       d="m 1399.3823,369.05717 c 1.2373,-1.39744 2.4745,-2.79483 2.6293,-2.048 0.1547,0.74682 -0.773,3.63776 0.043,3.05976 0.8158,-0.57799 3.375,-4.62483 4.196,-5.22286 0.8211,-0.59804 -0.096,2.25275 0.551,2.9017 0.6472,0.64896 2.8587,-0.90389 3.6125,-0.90433 0.7538,-4.5e-4 0.05,1.55146 1.4795,1.42711 1.4295,-0.12435 4.9922,-1.92488 6.4588,-2.05597 1.4666,-0.13109 0.8369,1.40728 2.0295,1.62566 1.1926,0.21839 4.2074,-0.8832 7.2222,-1.98479"
       id="path392"
       transform="translate(255.94065)" />
    <path
       style="fill:none;fill-opacity:1;stroke:#b8b8b8;stroke-width:0.79375;stroke-linecap:round;stroke-linejoin:round;stroke-dasharray:none;stroke-opacity:1;paint-order:normal"
       d="m 1406.0285,388.6189 c 1.7383,-1.36307 3.4766,-2.72614 3.749,-2.17811 0.2724,0.54802 -0.921,3.00701 0.4514,2.64437 1.3725,-0.36265 5.3106,-3.54679 6.8242,-3.92452 1.5135,-0.37774 0.6024,2.05096 1.7646,2.17288 1.1622,0.12192 4.3976,-2.06281 5.9747,-2.41463 1.577,-0.35181 1.4956,1.12932 2.4388,1.36902 0.9433,0.23969 2.9111,-0.76201 3.3855,-0.085 0.4744,0.677 -0.5448,3.03261 0.8629,3.12869 1.4076,0.0961 5.2419,-2.06732 9.0763,-4.23078"
       id="path393"
       transform="translate(255.94065)" />
    <path
       style="fill:none;fill-opacity:1;stroke:#b8b8b8;stroke-width:0.79375;stroke-linecap:round;stroke-linejoin:round;stroke-dasharray:none;stroke-opacity:1;paint-order:normal"
       d="m 1406.0285,388.6189 c 1.7383,-1.36307 3.4766,-2.72614 3.749,-2.17811 0.2724,0.54802 -0.921,3.00701 0.4514,2.64437 1.3725,-0.36265 5.3106,-3.54679 6.8242,-3.92452 1.5135,-0.37774 0.6024,2.05096 1.7646,2.17288 1.1622,0.12192 4.3976,-2.06281 5.9747,-2.41463 1.577,-0.35181 1.4956,1.12932 2.4388,1.36902 0.9433,0.23969 2.9111,-0.76201 3.3855,-0.085 0.4744,0.677 -0.5448,3.03261 0.8629,3.12869 1.4076,0.0961 5.2419,-2.06732 9.0763,-4.23078"
       id="path394"
       transform="translate(256.68072,64.423124)" />
    <path
       style="fill:none;fill-opacity:1;stroke:#b8b8b8;stroke-width:0.79375;stroke-linecap:round;stroke-linejoin:round;stroke-dasharray:none;stroke-opacity:1;paint-order:normal"
       d="m 1399.3823,369.05717 c 1.2373,-1.39744 2.4745,-2.79483 2.6293,-2.048 0.1547,0.74682 -0.773,3.63776 0.043,3.05976 0.8158,-0.57799 3.375,-4.62483 4.196,-5.22286 0.8211,-0.59804 -0.096,2.25275 0.551,2.9017 0.6472,0.64896 2.8587,-0.90389 3.6125,-0.90433 0.7538,-4.5e-4 0.05,1.55146 1.4795,1.42711 1.4295,-0.12435 4.9922,-1.92488 6.4588,-2.05597 1.4666,-0.13109 0.8369,1.40728 2.0295,1.62566 1.1926,0.21839 4.2074,-0.8832 7.2222,-1.98479"
       id="path396"
       transform="translate(263.2959,61.899204)" />
    <path
       style="fill:none;fill-opacity:1;stroke:#b8b8b8;stroke-width:0.79375;stroke-linecap:round;stroke-linejoin:round;stroke-dasharray:none;stroke-opacity:1;paint-order:normal"
       d="m 1399.3823,369.05717 c 1.2373,-1.39744 2.4745,-2.79483 2.6293,-2.048 0.1547,0.74682 -0.773,3.63776 0.043,3.05976 0.8158,-0.57799 3.375,-4.62483 4.196,-5.22286 0.8211,-0.59804 -0.096,2.25275 0.551,2.9017 0.6472,0.64896 2.8587,-0.90389 3.6125,-0.90433 0.7538,-4.5e-4 0.05,1.55146 1.4795,1.42711 1.4295,-0.12435 4.9922,-1.92488 6.4588,-2.05597 1.4666,-0.13109 0.8369,1.40728 2.0295,1.62566 1.1926,0.21839 4.2074,-0.8832 7.2222,-1.98479"
       id="path398"
       transform="translate(259.61224,43.038324)" />
    <path
       id="rect400"
       style="opacity:1;fill:none;fill-rule:evenodd;stroke:#b8b8b8;stroke-width:0.79375;stroke-dasharray:none;stroke-opacity:1;stop-color:#000000;stop-opacity:1"
       d="m 1434.7251,384.4348 h -2.8091 a 1,1 45 0 1 -1,-1 v -2.8091"
       transform="translate(221.48769)" />
    <path
       id="path401"
       style="fill:none;fill-rule:evenodd;stroke:#b8b8b8;stroke-width:0.79375;stop-color:#000000"
       d="m 1646.0918,423.01535 h 6.7409 c 0.6688,0 3.3238,2.65504 3.3238,3.32378 v 11.66011 c 0,0.66873 -0.5383,1.2071 -1.2071,1.2071 h -8.8576 c -0.6688,0 -1.2071,-0.53837 -1.2071,-1.2071 v -13.77678 c 0,-0.66874 0.5383,-1.20711 1.2071,-1.20711 z" />
    <path
       id="path402"
       style="opacity:1;fill:none;fill-rule:evenodd;stroke:#b8b8b8;stroke-width:0.79375;stroke-dasharray:none;stroke-opacity:1;stop-color:#000000;stop-opacity:1"
       d="m 1434.7251,384.4348 h -2.8091 a 1,1 45 0 1 -1,-1 v -2.8091"
       transform="translate(221.48772,42.33325)" />
    <path
       id="path403"
       style="fill:none;fill-rule:evenodd;stroke:#b8b8b8;stroke-width:0.79375;stop-color:#000000"
       d="m 1646.0918,444.18198 h 6.7409 c 0.6688,0 3.3238,2.65504 3.3238,3.32378 v 11.66011 c 0,0.66873 -0.5383,1.2071 -1.2071,1.2071 h -8.8576 c -0.6688,0 -1.2071,-0.53837 -1.2071,-1.2071 v -13.77678 c 0,-0.66874 0.5383,-1.20711 1.2071,-1.20711 z" />
    <path
       id="path404"
       style="opacity:1;fill:none;fill-rule:evenodd;stroke:#b8b8b8;stroke-width:0.79375;stroke-dasharray:none;stroke-opacity:1;stop-color:#000000;stop-opacity:1"
       d="m 1434.7251,384.4348 h -2.8091 a 1,1 45 0 1 -1,-1 v -2.8091"
       transform="translate(221.4877,63.499876)" />
  </g>
</svg>
