<?xml version="1.0" encoding="UTF-8" standalone="no"?>
<svg
   width="210mm"
   height="148mm"
   viewBox="0 0 210 148.00001"
   version="1.1"
   id="svg8"
   xmlns="http://www.w3.org/2000/svg"
   xmlns:svg="http://www.w3.org/2000/svg"
   xmlns:rdf="http://www.w3.org/1999/02/22-rdf-syntax-ns#"
   xmlns:cc="http://creativecommons.org/ns#"
   xmlns:dc="http://purl.org/dc/elements/1.1/">
  <defs
     id="defs2" />
  <metadata
     id="metadata5">
    <rdf:RDF>
      <cc:Work
         rdf:about="">
        <dc:format>image/svg+xml</dc:format>
        <dc:type
           rdf:resource="http://purl.org/dc/dcmitype/StillImage" />
      </cc:Work>
    </rdf:RDF>
  </metadata>
  <g
     id="layer1"
     transform="translate(-1985.9997,-483.90694)">
    <rect
       style="font-variation-settings:normal;fill:none;fill-opacity:1;fill-rule:evenodd;stroke:#b8b8b8;stroke-width:0.79375;stroke-linecap:butt;stroke-linejoin:miter;stroke-miterlimit:4;stroke-dasharray:none;stroke-dashoffset:0;stroke-opacity:1;stop-color:#000000"
       id="rect1106"
       width="170.76727"
       height="107.6309"
       x="2005.6165"
       y="504.09149"
       rx="0"
       ry="0" />
    <rect
       style="font-variation-settings:normal;fill:none;fill-opacity:1;fill-rule:evenodd;stroke:#b8b8b8;stroke-width:0.79375;stroke-linecap:butt;stroke-linejoin:miter;stroke-miterlimit:4;stroke-dasharray:none;stroke-dashoffset:0;stroke-opacity:1;stop-color:#000000"
       id="rect1107"
       width="5.9098406"
       height="5.9098406"
       x="2010.9081"
       y="509.38312"
       rx="0.79375005"
       ry="0.79375005" />
    <rect
       style="font-variation-settings:normal;fill:none;fill-opacity:1;fill-rule:evenodd;stroke:#b8b8b8;stroke-width:0.79375;stroke-linecap:butt;stroke-linejoin:miter;stroke-miterlimit:4;stroke-dasharray:none;stroke-dashoffset:0;stroke-opacity:1;stop-color:#000000"
       id="rect1108"
       width="5.9098406"
       height="5.9098406"
       x="2010.9081"
       y="520.58466"
       rx="0.79375005"
       ry="0.79375005" />
    <rect
       style="font-variation-settings:normal;fill:none;fill-opacity:1;fill-rule:evenodd;stroke:#b8b8b8;stroke-width:0.79375;stroke-linecap:butt;stroke-linejoin:miter;stroke-miterlimit:4;stroke-dasharray:none;stroke-dashoffset:0;stroke-opacity:1;stop-color:#000000"
       id="rect1109"
       width="5.9098406"
       height="5.9098406"
       x="2010.9081"
       y="531.78619"
       rx="0.79375005"
       ry="0.79375005" />
    <g
       id="g1129"
       style="fill:none;stroke:#808080;stroke-width:1.00013;stroke-dasharray:none;stroke-opacity:1"
       transform="translate(228.56165,-10.106439)">
      <path
         style="fill:none;fill-opacity:1;stroke:#808080;stroke-width:0.529167;stroke-linecap:round;stroke-linejoin:round;stroke-dasharray:none;stroke-opacity:1;paint-order:normal"
         d="m 937.5503,675.23756 c -2.52508,-4.66568 -5.05016,-9.33135 -5.93812,-12.71561 -0.88796,-3.38426 -0.13883,-5.487 0.74614,-5.80004 0.88498,-0.31304 1.90577,1.16362 2.51004,3.39288 0.60428,2.22926 0.79202,5.21098 1.43939,7.88187 0.64737,2.67089 1.75433,5.03081 2.86131,7.39076"
         id="path1109"
         transform="translate(890.19812,-67.878796)" />
      <path
         style="fill:none;fill-opacity:1;stroke:#808080;stroke-width:0.529167;stroke-linecap:round;stroke-linejoin:round;stroke-dasharray:none;stroke-opacity:1;paint-order:normal"
         d="m 933.07684,675.21164 c -3.26344,-6.82078 -6.52689,-13.64158 -7.42195,-18.2837 -0.89506,-4.64212 0.57818,-7.10548 2.05467,-8.77741 1.47649,-1.67194 2.95612,-2.55234 5.26681,-2.87151 2.31069,-0.31918 5.45228,-0.0771 7.28843,0.65178 1.83615,0.72891 2.36677,1.94459 1.88608,4.82226 -0.4807,2.87768 -1.97265,7.41716 -1.7183,11.81279 0.25435,4.39563 2.25497,8.64714 4.25562,12.89873"
         id="path1110"
         transform="translate(890.19812,-67.878796)" />
      <path
         style="fill:none;fill-opacity:1;stroke:#808080;stroke-width:0.529167;stroke-linecap:round;stroke-linejoin:round;stroke-dasharray:none;stroke-opacity:1;paint-order:normal"
         d="m 929.62894,675.29162 c -3.85335,-7.96309 -7.70669,-15.92617 -8.33005,-22.14746 -0.62336,-6.22129 1.98313,-10.70062 7.52633,-12.34265 5.54319,-1.64203 14.02269,-0.44672 17.54348,3.68668 3.5208,4.1334 2.08277,11.20458 1.7281,16.82201 -0.35466,5.61744 0.37404,9.78084 1.10275,13.9443"
         id="path1111"
         transform="translate(890.19812,-67.878796)" />
      <path
         style="fill:none;fill-opacity:1;stroke:#808080;stroke-width:0.529167;stroke-linecap:round;stroke-linejoin:round;stroke-dasharray:none;stroke-opacity:1;paint-order:normal"
         d="m 961.00861,674.96314 c -3.87659,-6.64111 -7.75317,-13.28221 -6.99854,-19.67027 0.75462,-6.38807 6.14025,-12.52285 5.54226,-16.46565 -0.59799,-3.9428 -7.17928,-5.69339 -12.2733,-5.88924 -5.09402,-0.19584 -8.70023,1.16311 -12.5381,1.19225 -3.83788,0.0291 -7.9072,-1.27151 -10.47049,-1.53771 -2.56329,-0.2662 -3.62043,0.50203 -3.11006,2.30228 0.51037,1.80024 2.58818,4.63238 4.66603,7.46457"
         id="path1112"
         transform="translate(890.19812,-67.878796)" />
      <path
         style="fill:none;fill-opacity:1;stroke:#808080;stroke-width:0.529167;stroke-linecap:round;stroke-linejoin:round;stroke-dasharray:none;stroke-opacity:1;paint-order:normal"
         d="m 967.67384,675.20838 c -3.04849,-8.26228 -6.09699,-16.52458 -5.14089,-24.15475 0.95611,-7.63017 5.91662,-14.62793 5.20813,-19.48337 -0.70849,-4.85543 -7.08583,-7.56829 -13.54179,-7.46705 -6.45597,0.10123 -12.99018,3.01649 -18.48572,2.798 -5.49554,-0.21849 -9.95208,-3.57064 -12.43992,-4.6635 -2.48784,-1.09286 -3.00685,0.0736 -2.26701,2.21938 0.73984,2.14582 2.73846,5.27087 4.73713,8.396"
         id="path1113"
         transform="translate(890.19812,-67.878796)" />
      <path
         style="fill:none;fill-opacity:1;stroke:#808080;stroke-width:0.529167;stroke-linecap:round;stroke-linejoin:round;stroke-dasharray:none;stroke-opacity:1;paint-order:normal"
         d="m 970.27573,675.39145 c -2.37847,-6.92594 -4.75689,-13.85177 -2.29008,-21.41501 2.46682,-7.56325 9.77855,-15.76318 10.43377,-21.72497 0.65521,-5.9618 -5.34614,-9.68475 -9.64281,-10.9916 -4.29666,-1.30685 -6.88814,-0.1974 -9.43894,0.71195 -2.5508,0.90935 -5.06078,1.61855 -7.57081,2.32776"
         id="path1114"
         transform="translate(890.19812,-67.878796)" />
      <path
         style="fill:none;fill-opacity:1;stroke:#808080;stroke-width:0.529167;stroke-linecap:round;stroke-linejoin:round;stroke-dasharray:none;stroke-opacity:1;paint-order:normal"
         d="m 984.37357,675.42698 c -0.14769,-1.3939 -0.29538,-2.78784 0.90862,-3.77013 1.20401,-0.98228 3.75962,-1.55294 4.72078,-2.54429 0.96117,-0.99136 0.32787,-2.40334 -2.23082,-2.21929 -2.55869,0.18406 -7.04261,1.9641 -10.35881,2.87118 -3.31619,0.90709 -5.46451,0.94118 -6.77114,0.87333 -1.30663,-0.0679 -1.77151,-0.23764 -2.23641,-0.40743"
         id="path1115"
         transform="translate(890.19812,-67.878796)" />
      <path
         style="fill:none;fill-opacity:1;stroke:#808080;stroke-width:0.529167;stroke-linecap:round;stroke-linejoin:round;stroke-dasharray:none;stroke-opacity:1;paint-order:normal"
         d="m 990.38417,675.21333 c 0.72483,-2.55797 1.44967,-5.11596 3.13058,-6.75781 1.68092,-1.64185 4.31781,-2.36756 4.29938,-3.74635 -0.0184,-1.37879 -2.69214,-3.41057 -6.37232,-2.9223 -3.68018,0.48827 -8.36658,3.49651 -12.23333,4.6812 -3.86675,1.18469 -6.91362,0.54581 -8.84677,-0.42848 -1.93315,-0.97428 -2.7525,-2.28391 -3.57185,-3.59355"
         id="path1116"
         transform="translate(890.19812,-67.878796)" />
      <path
         style="fill:none;fill-opacity:1;stroke:#808080;stroke-width:0.529167;stroke-linecap:round;stroke-linejoin:round;stroke-dasharray:none;stroke-opacity:1;paint-order:normal"
         d="m 997.92888,675.36348 c 0.22699,-1.8907 0.45397,-3.78132 1.3853,-4.85712 0.93132,-1.0758 2.56682,-1.3366 4.21102,-2.91401 1.6441,-1.57742 3.2969,-4.47146 2.4288,-7.65757 -0.8681,-3.1861 -4.2568,-6.66391 -7.87006,-7.11301 -3.61324,-0.44911 -7.45056,2.13061 -10.75348,3.92733 -3.30291,1.79671 -6.07107,2.81024 -8.24965,3.16385 -2.17858,0.3536 -3.76735,0.0472 -4.82984,-1.54627 -1.06249,-1.59351 -1.59866,-4.47409 -0.53735,-8.45286 1.0613,-3.97878 3.71999,-9.0555 6.8878,-12.83551 3.16781,-3.78001 6.84454,-6.2631 6.75606,-10.26329 -0.0885,-4.0002 -3.94209,-9.51721 -8.83418,-11.20394 -4.89209,-1.68673 -10.82234,0.45685 -14.83667,2.31732 -4.01434,1.86046 -6.11255,3.4377 -8.20419,4.4981 -2.09164,1.0604 -4.17657,1.6039 -6.26153,2.1474"
         id="path1117"
         transform="translate(890.19812,-67.878796)" />
      <path
         style="fill:none;fill-opacity:1;stroke:#808080;stroke-width:0.529167;stroke-linecap:round;stroke-linejoin:round;stroke-dasharray:none;stroke-opacity:1;paint-order:normal"
         d="m 945.44426,625.35331 c 3.91112,-1.81866 7.82223,-3.63731 12.56037,-6.79004 4.73814,-3.15273 10.30308,-7.63935 17.78478,-8.90317 7.48171,-1.26381 16.87971,0.69517 20.75057,5.89857 3.87082,5.2034 2.21448,13.65087 -1.62859,19.10031 -3.84308,5.44943 -9.87257,7.9006 -12.49025,11.00119 -2.61767,3.10059 -1.82344,6.85043 2.47673,7.21279 4.30017,0.36235 12.10595,-2.6627 17.57203,-2.76287 5.4661,-0.10017 8.5922,2.72451 9.241,6.04772 0.6487,3.32322 -1.1797,7.14454 -3.0909,9.73568 -1.9112,2.59113 -3.9048,3.95144 -4.968,5.28153 -1.0632,1.33009 -1.1959,2.62983 -1.3286,3.92959"
         id="path1118"
         transform="translate(890.19812,-67.878796)" />
      <path
         style="fill:none;fill-opacity:1;stroke:#808080;stroke-width:0.529167;stroke-linecap:round;stroke-linejoin:round;stroke-dasharray:none;stroke-opacity:1;paint-order:normal"
         d="m 970.08727,611.40019 c 3.10959,-1.85166 6.21917,-3.70332 9.71511,-5.95609 3.49594,-2.25277 7.3781,-4.90656 13.00372,-4.3397 5.62561,0.56686 12.9943,4.35425 15.2226,9.13416 2.2283,4.77991 -0.6838,10.55201 -4.1121,16.23039 -3.4282,5.67839 -7.37242,11.26275 -8.7808,14.66217 -1.40839,3.39941 -0.28093,4.61372 4.75573,4.69776 5.03667,0.084 13.98227,-0.96219 18.11387,1.18079 4.1316,2.14297 3.4492,7.47497 1.6185,11.13316 -1.8306,3.65819 -4.8093,5.64239 -6.6716,8.22419 -1.8623,2.5818 -2.6081,5.76105 -3.354,8.94037"
         id="path1119"
         transform="translate(890.19812,-67.878796)" />
      <path
         style="fill:none;fill-opacity:1;stroke:#808080;stroke-width:0.529167;stroke-linecap:round;stroke-linejoin:round;stroke-dasharray:none;stroke-opacity:1;paint-order:normal"
         d="m 996.11982,639.0301 c 0.65286,1.33625 1.30571,2.67248 4.47578,2.58098 3.1701,-0.0915 8.8572,-1.61066 14.2609,-2.13566 5.4037,-0.52499 10.5236,-0.0558 13.1646,2.58517 2.641,2.64096 2.8029,7.45347 0.3182,11.9885 -2.4847,4.53503 -7.6159,8.79238 -10.0805,12.31159 -2.4646,3.5192 -2.2626,6.30013 -2.0606,9.08114"
         id="path1120"
         transform="translate(890.19812,-67.878796)" />
      <path
         style="fill:none;fill-opacity:1;stroke:#808080;stroke-width:0.529167;stroke-linecap:round;stroke-linejoin:round;stroke-dasharray:none;stroke-opacity:1;paint-order:normal"
         d="m 998.77868,634.84275 c -0.46631,1.45796 -0.93263,2.9159 -0.76454,3.81801 0.16809,0.90211 0.97055,1.24837 5.10926,-0.41135 4.1387,-1.65972 11.6133,-5.32527 17.2781,-6.60257 5.6647,-1.27731 9.5193,-0.16631 11.8423,2.13185 2.3231,2.29816 3.1145,5.78329 2.3977,8.81375 -0.7169,3.03045 -2.9419,5.60595 -4.264,7.47867 -1.3221,1.87272 -1.7413,3.04253 -2.1604,4.21238"
         id="path1121"
         transform="translate(890.19812,-67.878796)" />
      <path
         style="fill:none;fill-opacity:1;stroke:#808080;stroke-width:0.529167;stroke-linecap:round;stroke-linejoin:round;stroke-dasharray:none;stroke-opacity:1;paint-order:normal"
         d="m 925.8788,623.6554 c -1.17469,-1.61867 -2.34938,-3.23733 -1.94737,-4.45717 0.402,-1.21984 2.38064,-2.04085 5.11252,-1.12797 2.73188,0.91288 6.21682,3.55954 9.398,4.92492 3.18118,1.36538 6.05842,1.44943 8.93571,1.53348"
         id="path1122"
         transform="translate(890.19812,-67.878796)" />
      <path
         style="fill:none;fill-opacity:1;stroke:#808080;stroke-width:0.529167;stroke-linecap:round;stroke-linejoin:round;stroke-dasharray:none;stroke-opacity:1;paint-order:normal"
         d="m 959.36474,617.53271 c -0.65388,-0.4768 -1.30774,-0.9536 0.82099,-2.6092 2.12874,-1.6556 7.0399,-4.48989 12.36634,-8.45646 5.32643,-3.96657 11.06782,-9.06514 17.97739,-10.95974 6.90958,-1.8946 14.98694,-0.58517 19.37524,3.33225 4.3883,3.91741 5.0874,10.44255 3.3609,16.45622 -1.7266,6.01366 -5.8788,11.51556 -7.2196,14.35226 -1.3409,2.83671 0.1295,3.00816 3.9855,1.57488 3.8559,-1.43328 10.0972,-4.47119 15.3471,-4.9659 5.2498,-0.49472 9.508,1.55376 11.0433,5.93889 1.5352,4.38513 0.3475,11.10661 -2.7132,17.0635 -3.0607,5.95689 -7.994,11.1488 -10.4819,15.3485 -2.4879,4.1997 -2.5303,7.4069 -2.5726,10.61415"
         id="path1123"
         transform="translate(890.19812,-67.878796)" />
      <path
         style="fill:none;fill-opacity:1;stroke:#808080;stroke-width:0.529167;stroke-linecap:round;stroke-linejoin:round;stroke-dasharray:none;stroke-opacity:1;paint-order:normal"
         d="m 960.79754,614.55625 c -1.03401,-0.85339 -2.06803,-1.70679 -0.49213,-3.1117 1.5759,-1.4049 5.76154,-3.36124 10.2754,-7.26056 4.51386,-3.89933 9.35566,-9.74137 16.90692,-12.07103 7.55126,-2.32965 17.81157,-1.14684 23.19897,2.25311 5.3874,3.39995 5.9017,9.01681 5.2491,13.58048 -0.6526,4.56368 -2.4721,8.0739 -4.2917,11.58421"
         id="path1124"
         transform="translate(890.19812,-67.878796)" />
      <path
         style="fill:none;fill-opacity:1;stroke:#808080;stroke-width:0.529167;stroke-linecap:round;stroke-linejoin:round;stroke-dasharray:none;stroke-opacity:1;paint-order:normal"
         d="m 959.86871,615.29801 c -1.97004,-1.71578 -3.94008,-3.43155 -2.36693,-5.45024 1.57315,-2.01868 6.6893,-4.34017 11.18941,-8.15906 4.50011,-3.81889 8.3839,-9.13491 15.64172,-11.73353 7.25782,-2.59861 17.88919,-2.47972 24.32369,-1.36182 6.4344,1.1179 8.6716,3.23471 10.2916,6.1986 1.6201,2.9639 2.6228,6.77466 1.077,12.24509 -1.5457,5.47043 -5.6398,12.60019 -7.2196,16.23343 -1.5798,3.63324 -0.6452,3.76979 3.158,2.66874 3.8033,-1.10105 10.475,-3.43963 15.2359,-3.11673 4.7609,0.32291 7.6108,3.30723 8.6303,7.05736 1.0196,3.75012 0.2087,8.26584 -1.2139,11.81099 -1.4226,3.54516 -3.4569,6.11955 -4.8138,8.00775 -1.3569,1.8882 -2.0363,3.09014 -2.7157,4.29206"
         id="path1125"
         transform="translate(890.19812,-67.878796)" />
      <path
         style="fill:none;fill-opacity:1;stroke:#808080;stroke-width:0.529167;stroke-linecap:round;stroke-linejoin:round;stroke-dasharray:none;stroke-opacity:1;paint-order:normal"
         d="m 955.37752,620.12377 c -2.56114,-1.60593 -5.12229,-3.21187 -5.97726,-5.00075 -0.85497,-1.78888 -0.004,-3.76061 1.06396,-4.19021 1.06777,-0.42961 2.35209,0.68289 3.63246,1.31045 1.28036,0.62755 2.5567,0.77014 3.83306,0.91273"
         id="path1126"
         transform="translate(890.19812,-67.878796)" />
      <path
         style="fill:none;fill-opacity:1;stroke:#808080;stroke-width:0.529167;stroke-linecap:round;stroke-linejoin:round;stroke-dasharray:none;stroke-opacity:1;paint-order:normal"
         d="m 952.32492,621.84946 c -1.30945,-1.61114 -2.61891,-3.22228 -4.45579,-4.59647 -1.83688,-1.37419 -4.20109,-2.51139 -4.87317,-4.37131 -0.67208,-1.85992 0.34799,-4.44244 2.37969,-5.43494 2.0317,-0.9925 5.0749,-0.39495 6.73346,0.31522 1.65855,0.71017 1.93239,1.53292 2.57651,1.92711 0.64412,0.39419 1.65848,0.35983 2.67286,0.32547"
         id="path1127"
         transform="translate(890.19812,-67.878796)" />
      <path
         style="fill:none;fill-opacity:1;stroke:#808080;stroke-width:0.529167;stroke-linecap:round;stroke-linejoin:round;stroke-dasharray:none;stroke-opacity:1;paint-order:normal"
         d="m 936.58083,622.10047 c 2.56118,-0.0344 5.12237,-0.0687 6.39985,-0.74048 1.27748,-0.67176 1.27124,-1.98084 -0.044,-3.44294 -1.31527,-1.4621 -3.93946,-3.07712 -4.79075,-5.3153 -0.8513,-2.23817 0.0703,-5.09935 2.63602,-6.63054 2.56571,-1.53119 6.77532,-1.73232 9.54415,-1.22217 2.76883,0.51014 4.09672,1.7315 5.48545,2.24038 1.38872,0.50888 2.83817,0.30526 4.13641,-0.0511 1.29824,-0.35639 2.4452,-0.86552 3.59218,-1.37466"
         id="path1128"
         transform="translate(890.19812,-67.878796)" />
      <path
         style="fill:none;fill-opacity:1;stroke:#808080;stroke-width:0.529167;stroke-linecap:round;stroke-linejoin:round;stroke-dasharray:none;stroke-opacity:1;paint-order:normal"
         d="m 932.51482,619.94578 c 2.00565,0.0684 4.01131,0.13672 5.50516,-0.0991 1.49385,-0.23583 2.47584,-0.77581 1.73321,-1.78914 -0.74263,-1.01333 -3.20982,-2.49993 -4.52573,-4.78099 -1.31592,-2.28106 -1.4805,-5.35642 0.27738,-7.3702 1.75789,-2.01377 5.43808,-2.96587 8.48794,-2.91837 3.04985,0.0475 5.46919,1.0946 7.88857,2.14172"
         id="path1129"
         transform="translate(890.19812,-67.878796)" />
    </g>
    <path
       style="fill:none;fill-opacity:1;stroke:#f4de90;stroke-width:0.79375;stroke-linecap:round;stroke-linejoin:round;stroke-dasharray:none;stroke-opacity:1;paint-order:normal"
       d="m 2161.7507,603.78708 c 0.9688,-1.03431 1.9374,-2.06858 2.0586,-1.51581 0.1211,0.55275 -0.6053,2.69246 0.034,2.26466 0.6387,-0.4278 2.6425,-3.42304 3.2853,-3.86568 0.643,-0.44263 -0.075,1.66737 0.4315,2.14769 0.5067,0.48031 2.2382,-0.66902 2.8284,-0.66935 0.5903,-3.3e-4 0.039,1.14832 1.1585,1.05628 0.1744,-0.0144 0.3892,-0.0588 0.6322,-0.12402"
       id="path1131" />
    <path
       d="m 2161.3985,608.18662 c 1.3164,-0.35331 3.4554,-1.31579 4.4247,-1.3977 1.1483,-0.097 0.6553,1.04159 1.5891,1.20322 0.9337,0.16165 3.2943,-0.65369 5.6547,-1.46903"
       style="fill:none;fill-opacity:1;stroke:#f4de90;stroke-width:0.79375;stroke-linecap:round;stroke-linejoin:round;stroke-dasharray:none;stroke-opacity:1;paint-order:normal"
       id="path1132" />
    <circle
       style="font-variation-settings:normal;fill:none;fill-opacity:1;fill-rule:evenodd;stroke:#f4de90;stroke-width:0.79375;stroke-linecap:butt;stroke-linejoin:miter;stroke-miterlimit:4;stroke-dasharray:none;stroke-dashoffset:0;stroke-opacity:1;stop-color:#000000"
       id="circle1132"
       cx="2155.2529"
       cy="604.5451"
       r="2.1166668" />
    <circle
       style="font-variation-settings:normal;fill:none;fill-opacity:1;fill-rule:evenodd;stroke:#f4de90;stroke-width:0.79375;stroke-linecap:butt;stroke-linejoin:miter;stroke-miterlimit:4;stroke-dasharray:none;stroke-dashoffset:0;stroke-opacity:1;stop-color:#000000"
       id="circle1133"
       cx="2148.3738"
       cy="604.5451"
       r="2.1166668" />
    <circle
       style="font-variation-settings:normal;fill:none;fill-opacity:1;fill-rule:evenodd;stroke:#f4de90;stroke-width:0.79375;stroke-linecap:butt;stroke-linejoin:miter;stroke-miterlimit:4;stroke-dasharray:none;stroke-dashoffset:0;stroke-opacity:1;stop-color:#000000"
       id="circle1134"
       cx="2141.4946"
       cy="604.5451"
       r="2.1166668" />
    <circle
       style="font-variation-settings:normal;fill:none;fill-opacity:1;fill-rule:evenodd;stroke:#f4de90;stroke-width:0.793751;stroke-linecap:butt;stroke-linejoin:miter;stroke-miterlimit:4;stroke-dasharray:none;stroke-dashoffset:0;stroke-opacity:1;stop-color:#000000"
       id="circle1135"
       cx="2112.1665"
       cy="604.5451"
       r="3.9142497" />
    <circle
       style="font-variation-settings:normal;fill:none;fill-opacity:1;fill-rule:evenodd;stroke:#f4de90;stroke-width:0.793751;stroke-linecap:butt;stroke-linejoin:miter;stroke-miterlimit:4;stroke-dasharray:none;stroke-dashoffset:0;stroke-opacity:1;stop-color:#000000"
       id="circle1136"
       cx="2101.5833"
       cy="604.5451"
       r="3.9142497" />
    <circle
       style="font-variation-settings:normal;fill:none;fill-opacity:1;fill-rule:evenodd;stroke:#f4de90;stroke-width:0.793751;stroke-linecap:butt;stroke-linejoin:miter;stroke-miterlimit:4;stroke-dasharray:none;stroke-dashoffset:0;stroke-opacity:1;stop-color:#000000"
       id="circle1137"
       cx="2091"
       cy="604.5451"
       r="3.9142497" />
    <circle
       style="font-variation-settings:normal;fill:none;fill-opacity:1;fill-rule:evenodd;stroke:#f4de90;stroke-width:0.793751;stroke-linecap:butt;stroke-linejoin:miter;stroke-miterlimit:4;stroke-dasharray:none;stroke-dashoffset:0;stroke-opacity:1;stop-color:#000000"
       id="circle1138"
       cx="2080.4167"
       cy="604.5451"
       r="3.9142497" />
    <circle
       style="font-variation-settings:normal;fill:none;fill-opacity:1;fill-rule:evenodd;stroke:#f4de90;stroke-width:0.793751;stroke-linecap:butt;stroke-linejoin:miter;stroke-miterlimit:4;stroke-dasharray:none;stroke-dashoffset:0;stroke-opacity:1;stop-color:#000000"
       id="circle1139"
       cx="2069.8335"
       cy="604.5451"
       r="3.9142497" />
    <rect
       style="font-variation-settings:normal;opacity:1;fill:none;fill-opacity:1;fill-rule:evenodd;stroke:#f4de90;stroke-width:0.79375;stroke-linecap:butt;stroke-linejoin:miter;stroke-miterlimit:4;stroke-dasharray:none;stroke-dashoffset:0;stroke-opacity:1;stop-color:#000000;stop-opacity:1"
       id="rect1180"
       width="170.76538"
       height="14.396212"
       x="2005.6184"
       y="597.32617"
       rx="0"
       ry="0" />
  </g>
</svg>
