<?xml version="1.0" encoding="UTF-8" standalone="no"?>
<svg
   width="210mm"
   height="148mm"
   viewBox="0 0 210 148.00001"
   version="1.1"
   id="svg8"
   xmlns="http://www.w3.org/2000/svg"
   xmlns:svg="http://www.w3.org/2000/svg"
   xmlns:rdf="http://www.w3.org/1999/02/22-rdf-syntax-ns#"
   xmlns:cc="http://creativecommons.org/ns#"
   xmlns:dc="http://purl.org/dc/elements/1.1/">
  <defs
     id="defs2" />
  <metadata
     id="metadata5">
    <rdf:RDF>
      <cc:Work
         rdf:about="">
        <dc:format>image/svg+xml</dc:format>
        <dc:type
           rdf:resource="http://purl.org/dc/dcmitype/StillImage" />
      </cc:Work>
    </rdf:RDF>
  </metadata>
  <g
     id="layer1"
     transform="translate(-1765.9998,-326.44195)">
    <g
       id="g611"
       transform="matrix(0.45203461,0,0,0.45613272,1475.3297,223.07162)"
       style="stroke-width:2.20226">
      <path
         id="path610"
         style="fill:none;fill-rule:evenodd;stroke:#b8b8b8;stroke-width:1.74804;stop-color:#000000"
         d="m 946.20794,348.72594 h 6.7409 c 0.6688,0 3.3238,2.65504 3.3238,3.32378 v 11.66011 c 0,0.66873 -0.5383,1.2071 -1.2071,1.2071 h -8.8576 c -0.6688,0 -1.2071,-0.53837 -1.2071,-1.2071 v -13.77678 c 0,-0.66874 0.5383,-1.20711 1.2071,-1.20711 z" />
      <path
         id="path611"
         style="fill:none;fill-rule:evenodd;stroke:#b8b8b8;stroke-width:1.74804;stroke-dasharray:none;stroke-opacity:1;stop-color:#000000"
         d="m 1434.7251,384.4348 h -2.8091 a 1,1 45 0 1 -1,-1 v -2.8091"
         transform="translate(-478.39616,-31.956157)" />
    </g>
    <path
       style="fill:none;fill-opacity:1;stroke:#b8b8b8;stroke-width:0.793752;stroke-linecap:round;stroke-linejoin:round;stroke-dasharray:none;stroke-opacity:1;paint-order:normal"
       d="m 1832.1399,460.65707 v -37.33043 c 0,-2.13742 -1.139,-4.11246 -2.9878,-5.18115 l -9.3901,-5.42788 c -1.8488,-1.06873 -2.9876,-3.04377 -2.9876,-5.18114 V 403.739 c 0,-2.13744 -1.139,-4.1125 -2.9879,-5.18117 l -2.6045,-1.50561"
       id="path612" />
    <path
       style="fill:none;fill-opacity:1;stroke:#b8b8b8;stroke-width:0.79375;stroke-linecap:round;stroke-linejoin:round;stroke-dasharray:none;stroke-opacity:1;paint-order:normal"
       d="m 1832.1399,448.3965 v -10.94904 a 12.875322,12.890842 0 0 1 1.725,-6.44544 l 8.6967,-15.08137 a 12.875444,12.890964 0 0 1 4.7127,-4.7184 l 5.3867,-3.1138 a 5.9754882,5.9826912 0 0 0 2.9878,-5.18115 v -8.26571"
       id="path613" />
    <path
       style="fill:none;fill-opacity:1;stroke:#b8b8b8;stroke-width:0.79375;stroke-linecap:round;stroke-linejoin:round;stroke-dasharray:none;stroke-opacity:1;paint-order:normal"
       d="m 1861.5712,381.96588 v 8.79166 a 8.6890091,8.6994829 0 0 1 -2.3665,5.96746 l -1.1894,1.26313 a 8.6890091,8.6994829 0 0 0 -2.3665,5.96746 5.0956559,5.1017983 0 0 1 -2.9878,4.13284 l -2.6934,1.55692"
       id="path614" />
    <path
       style="fill:none;fill-opacity:1;stroke:#b8b8b8;stroke-width:0.79375;stroke-linecap:round;stroke-linejoin:round;stroke-dasharray:none;stroke-opacity:1;paint-order:normal"
       d="m 1844.2866,412.92932 1.4328,-5.35355 a 26.205496,26.237084 0 0 0 0.8928,-6.79049 v -11.58073"
       id="path615" />
    <path
       style="fill:none;fill-opacity:1;stroke:#b8b8b8;stroke-width:0.79375;stroke-linecap:round;stroke-linejoin:round;stroke-dasharray:none;stroke-opacity:1;paint-order:normal"
       d="m 1840.925,381.96588 v 5.60797 a 8.3288025,8.3388422 0 0 0 2.4394,5.89649 l 0.8084,0.80919 a 8.3288025,8.3388422 0 0 1 2.4394,5.89651 v 0.60924 a 26.205496,26.237084 0 0 1 -0.8928,6.79049 l -0.5399,2.01713 a 26.204081,26.235668 0 0 1 -2.6179,6.32775 l -2.564,4.44629"
       id="path616" />
    <path
       style="fill:none;fill-opacity:1;stroke:#b8b8b8;stroke-width:0.79375;stroke-linecap:round;stroke-linejoin:round;stroke-dasharray:none;stroke-opacity:1;paint-order:normal"
       d="m 1822.7055,391.49845 v 12.85942 a 12.875317,12.890837 0 0 0 1.725,6.44543 l 2.265,3.9279 a 12.875541,12.891061 0 0 0 4.7127,4.7184 3.940902,3.9456524 0 0 1 0.7317,3.87704 v 13.90278"
       id="path617" />
    <path
       id="path618"
       style="font-variation-settings:normal;opacity:1;fill:none;fill-opacity:1;fill-rule:evenodd;stroke:#b8b8b8;stroke-width:0.79375;stroke-linecap:butt;stroke-linejoin:miter;stroke-miterlimit:4;stroke-dasharray:none;stroke-dashoffset:0;stroke-opacity:1;stop-color:#000000;stop-opacity:1"
       d="m 1831.5491,350.68313 a 5.3074636,3.8383417 0 0 0 -5.2334,3.23343 5.3074636,3.8383417 0 0 0 -4.6416,3.28521 8.3793899,6.0599497 0 0 0 -4.5416,1.09597 5.3074636,3.8383417 0 0 0 -4.3199,-1.61003 5.3074636,3.8383417 0 0 0 -5.3074,3.83854 5.3074636,3.8383417 0 0 0 1.4628,2.63818 8.3793899,6.0599497 0 0 0 -6.0053,4.78278 5.3074636,3.8383417 0 0 0 -0.5839,-0.025 5.3074636,3.8383417 0 0 0 -5.3074,3.83854 5.3074636,3.8383417 0 0 0 1.749,2.83718 8.3793899,6.0599497 0 0 0 -1.0983,1.353 5.3074636,3.8383417 0 0 0 -5.2441,3.83499 5.3074636,3.8383417 0 0 0 1.3434,2.53909 8.3793899,6.0599497 0 0 0 -3.1689,4.73816 8.3793899,6.0599497 0 0 0 4.1913,5.24865 5.3074636,3.8383417 0 0 0 0,0.0321 5.3074636,3.8383417 0 0 0 5.3074,3.83854 5.3074636,3.8383417 0 0 0 2.536,-0.47301 8.3793899,6.0599497 0 0 0 6.0945,1.91525 8.3793899,6.0599497 0 0 0 8.3792,-6.05992 8.3793899,6.0599497 0 0 0 -0.1397,-1.09685 8.3793899,6.0599497 0 0 0 5.2531,1.34853 8.3793899,6.0599497 0 0 0 6.0722,-1.89652 5.3074636,3.8383417 0 0 0 2.9959,0.68007 5.3074636,3.8383417 0 0 0 5.3074,-3.83854 5.3074636,3.8383417 0 0 0 -1.1079,-2.34721 8.3793899,6.0599497 0 0 0 2.5352,-2.59802 8.3793899,6.0599497 0 0 0 3.4337,0.54264 8.3793899,6.0599497 0 0 0 1.5154,-0.11243 8.3793899,6.0599497 0 0 0 -0.4226,1.85991 8.3793899,6.0599497 0 0 0 6.5438,5.90107 5.3074636,3.8383417 0 0 0 -0.3914,1.44224 5.3074636,3.8383417 0 0 0 5.3074,3.83854 5.3074636,3.8383417 0 0 0 5.3074,-3.83854 5.3074636,3.8383417 0 0 0 -0.1818,-0.99333 5.3074636,3.8383417 0 0 0 1.3192,-2.52035 5.3074636,3.8383417 0 0 0 -1.3505,-2.55695 8.3793899,6.0599497 0 0 0 0.2051,-1.27268 8.3793899,6.0599497 0 0 0 -0.2566,-1.48329 8.3793899,6.0599497 0 0 0 1.8629,0.16251 8.3793899,6.0599497 0 0 0 1.4583,-0.10449 5.3074636,3.8383417 0 0 0 4.3109,1.61093 5.3074636,3.8383417 0 0 0 5.3074,-3.83854 5.3074636,3.8383417 0 0 0 -0.083,-0.67025 5.3074636,3.8383417 0 0 0 1.338,-2.53554 5.3074636,3.8383417 0 0 0 -0.9395,-2.18033 8.3793899,6.0599497 0 0 0 1.2516,-3.17007 8.3793899,6.0599497 0 0 0 -3.3161,-4.82741 5.3074636,3.8383417 0 0 0 1.2934,-2.49894 5.3074636,3.8383417 0 0 0 -5.3074,-3.83765 5.3074636,3.8383417 0 0 0 -1.1205,0.0938 8.3793899,6.0599497 0 0 0 0.1656,-1.13166 8.3793899,6.0599497 0 0 0 -8.3791,-6.06081 8.3793899,6.0599497 0 0 0 -4.951,1.18075 8.3793899,6.0599497 0 0 0 -6.582,-2.31241 8.3793899,6.0599497 0 0 0 -3.0219,0.41589 5.3074636,3.8383417 0 0 0 -4.6593,-2.00182 5.3074636,3.8383417 0 0 0 -2.8588,0.61401 5.3074636,3.8383417 0 0 0 -3.3249,-0.84784 z" />
    <path
       style="fill:none;fill-opacity:1;stroke:#b8b8b8;stroke-width:0.793752;stroke-linecap:round;stroke-linejoin:round;stroke-dasharray:none;stroke-opacity:1;paint-order:normal"
       d="m 1914.2916,460.65706 v -37.33042 c 0,-2.1374 -1.1389,-4.11244 -2.9877,-5.18115 l -9.39,-5.42788 c -1.8488,-1.06868 -2.9878,-3.04373 -2.9878,-5.18114 V 403.739 c 0,-2.1374 -1.1389,-4.11245 -2.9877,-5.18117 l -2.6047,-1.50561"
       id="path619" />
    <path
       style="fill:none;fill-opacity:1;stroke:#b8b8b8;stroke-width:0.79375;stroke-linecap:round;stroke-linejoin:round;stroke-dasharray:none;stroke-opacity:1;paint-order:normal"
       d="m 1914.2916,448.3965 v -10.94904 a 12.875322,12.890842 0 0 1 1.725,-6.44544 l 8.6967,-15.08137 a 12.875444,12.890964 0 0 1 4.7128,-4.7184 l 5.3868,-3.1138 a 5.9754882,5.9826912 0 0 0 2.9876,-5.18115 v -8.26571"
       id="path620" />
    <path
       style="fill:none;fill-opacity:1;stroke:#b8b8b8;stroke-width:0.79375;stroke-linecap:round;stroke-linejoin:round;stroke-dasharray:none;stroke-opacity:1;paint-order:normal"
       d="m 1943.7228,381.96588 v 8.79166 a 8.6890091,8.6994829 0 0 1 -2.3664,5.96746 l -1.1894,1.26313 a 8.6890091,8.6994829 0 0 0 -2.3665,5.96746 5.0956559,5.1017983 0 0 1 -2.9876,4.13284 l -2.6936,1.55692"
       id="path621" />
    <path
       style="fill:none;fill-opacity:1;stroke:#b8b8b8;stroke-width:0.79375;stroke-linecap:round;stroke-linejoin:round;stroke-dasharray:none;stroke-opacity:1;paint-order:normal"
       d="m 1926.4383,412.92932 1.4328,-5.35355 a 26.205496,26.237084 0 0 0 0.8928,-6.79049 v -11.58073"
       id="path622" />
    <path
       style="fill:none;fill-opacity:1;stroke:#b8b8b8;stroke-width:0.79375;stroke-linecap:round;stroke-linejoin:round;stroke-dasharray:none;stroke-opacity:1;paint-order:normal"
       d="m 1923.0767,381.96588 v 5.60797 a 8.3288025,8.3388422 0 0 0 2.4394,5.89649 l 0.8084,0.80919 a 8.3288025,8.3388422 0 0 1 2.4394,5.89651 v 0.60924 a 26.205496,26.237084 0 0 1 -0.8928,6.79049 l -0.54,2.01713 a 26.204081,26.235668 0 0 1 -2.6178,6.32775 l -2.564,4.44629"
       id="path623" />
    <path
       style="fill:none;fill-opacity:1;stroke:#b8b8b8;stroke-width:0.79375;stroke-linecap:round;stroke-linejoin:round;stroke-dasharray:none;stroke-opacity:1;paint-order:normal"
       d="m 1904.8572,391.49845 v 12.85942 a 12.875317,12.890837 0 0 0 1.725,6.44543 l 2.265,3.9279 a 12.875541,12.891061 0 0 0 4.7128,4.7184 3.940902,3.9456524 0 0 1 0.7316,3.87704 v 13.90278"
       id="path624" />
    <g
       id="g628"
       transform="matrix(0.45203461,0,0,0.45613272,1515.086,213.22052)"
       style="stroke-width:2.20226">
      <path
         id="path627"
         style="fill:none;fill-rule:evenodd;stroke:#b8b8b8;stroke-width:1.74804;stop-color:#000000"
         d="m 946.20794,348.72594 h 6.7409 c 0.6688,0 3.3238,2.65504 3.3238,3.32378 v 11.66011 c 0,0.66873 -0.5383,1.2071 -1.2071,1.2071 h -8.8576 c -0.6688,0 -1.2071,-0.53837 -1.2071,-1.2071 v -13.77678 c 0,-0.66874 0.5383,-1.20711 1.2071,-1.20711 z" />
      <path
         id="path628"
         style="fill:none;fill-rule:evenodd;stroke:#b8b8b8;stroke-width:1.74804;stroke-dasharray:none;stroke-opacity:1;stop-color:#000000"
         d="m 1434.7251,384.4348 h -2.8091 a 1,1 45 0 1 -1,-1 v -2.8091"
         transform="translate(-478.39616,-31.956157)" />
    </g>
    <g
       id="g630"
       transform="matrix(0.45203461,0,0,0.45613272,1462.9917,228.74582)"
       style="stroke-width:2.20226">
      <path
         id="path629"
         style="fill:none;fill-rule:evenodd;stroke:#b8b8b8;stroke-width:1.74804;stop-color:#000000"
         d="m 946.20794,348.72594 h 6.7409 c 0.6688,0 3.3238,2.65504 3.3238,3.32378 v 11.66011 c 0,0.66873 -0.5383,1.2071 -1.2071,1.2071 h -8.8576 c -0.6688,0 -1.2071,-0.53837 -1.2071,-1.2071 v -13.77678 c 0,-0.66874 0.5383,-1.20711 1.2071,-1.20711 z" />
      <path
         id="path630"
         style="fill:none;fill-rule:evenodd;stroke:#b8b8b8;stroke-width:1.74804;stroke-dasharray:none;stroke-opacity:1;stop-color:#000000"
         d="m 1434.7251,384.4348 h -2.8091 a 1,1 45 0 1 -1,-1 v -2.8091"
         transform="translate(-478.39616,-31.956157)" />
    </g>
    <path
       id="path650"
       style="font-variation-settings:normal;fill:none;fill-opacity:1;fill-rule:evenodd;stroke:#000000;stroke-width:2.64583;stroke-linecap:butt;stroke-linejoin:miter;stroke-miterlimit:4;stroke-dasharray:none;stroke-dashoffset:0;stroke-opacity:1;stop-color:#000000"
       d="m 928.10352,381.91211 a 0.34955245,0.34896484 0 0 0 -0.34961,0.34961 v 6.6875 a 0.34955322,0.34896562 0 0 0 0.34961,0.34961 h 9.49023 a 0.34955165,0.34896407 0 0 0 0.34961,-0.34961 v -5.58594 a 0.34955245,0.34896484 0 0 0 -0.34961,-0.34961 h -4.02539 a 0.65538328,0.65428161 0 0 1 -0.54492,-0.28906 l -0.34961,-0.52149 a 0.65538328,0.65428161 0 0 0 -0.54492,-0.29101 z"
       transform="translate(977.79617,31.568348)" />
    <path
       id="path651"
       style="font-variation-settings:normal;fill:none;fill-opacity:1;fill-rule:evenodd;stroke:#b8b8b8;stroke-width:0.793748;stroke-linecap:butt;stroke-linejoin:miter;stroke-miterlimit:4;stroke-dasharray:none;stroke-dashoffset:0;stroke-opacity:1;stop-color:#000000"
       d="m 928.10352,381.91211 a 0.34955245,0.34896484 0 0 0 -0.34961,0.34961 v 6.6875 a 0.34955322,0.34896562 0 0 0 0.34961,0.34961 h 9.49023 a 0.34955165,0.34896407 0 0 0 0.34961,-0.34961 v -5.58594 a 0.34955245,0.34896484 0 0 0 -0.34961,-0.34961 h -4.02539 a 0.65538328,0.65428161 0 0 1 -0.54492,-0.28906 l -0.34961,-0.52149 a 0.65538328,0.65428161 0 0 0 -0.54492,-0.29101 z"
       transform="translate(977.79617,31.568348)" />
    <path
       id="path652"
       style="font-variation-settings:normal;fill:none;fill-opacity:1;fill-rule:evenodd;stroke:#000000;stroke-width:2.64583;stroke-linecap:butt;stroke-linejoin:miter;stroke-miterlimit:4;stroke-dasharray:none;stroke-dashoffset:0;stroke-opacity:1;stop-color:#000000"
       d="m 928.10352,381.91211 a 0.34955245,0.34896484 0 0 0 -0.34961,0.34961 v 6.6875 a 0.34955322,0.34896562 0 0 0 0.34961,0.34961 h 9.49023 a 0.34955165,0.34896407 0 0 0 0.34961,-0.34961 v -5.58594 a 0.34955245,0.34896484 0 0 0 -0.34961,-0.34961 h -4.02539 a 0.65538328,0.65428161 0 0 1 -0.54492,-0.28906 l -0.34961,-0.52149 a 0.65538328,0.65428161 0 0 0 -0.54492,-0.29101 z"
       transform="translate(982.71453,47.048437)" />
    <path
       id="path653"
       style="font-variation-settings:normal;fill:none;fill-opacity:1;fill-rule:evenodd;stroke:#b8b8b8;stroke-width:0.793748;stroke-linecap:butt;stroke-linejoin:miter;stroke-miterlimit:4;stroke-dasharray:none;stroke-dashoffset:0;stroke-opacity:1;stop-color:#000000"
       d="m 928.10352,381.91211 a 0.34955245,0.34896484 0 0 0 -0.34961,0.34961 v 6.6875 a 0.34955322,0.34896562 0 0 0 0.34961,0.34961 h 9.49023 a 0.34955165,0.34896407 0 0 0 0.34961,-0.34961 v -5.58594 a 0.34955245,0.34896484 0 0 0 -0.34961,-0.34961 h -4.02539 a 0.65538328,0.65428161 0 0 1 -0.54492,-0.28906 l -0.34961,-0.52149 a 0.65538328,0.65428161 0 0 0 -0.54492,-0.29101 z"
       transform="translate(982.71453,47.048437)" />
    <path
       id="path654"
       style="font-variation-settings:normal;fill:none;fill-opacity:1;fill-rule:evenodd;stroke:#000000;stroke-width:2.64583;stroke-linecap:butt;stroke-linejoin:miter;stroke-miterlimit:4;stroke-dasharray:none;stroke-dashoffset:0;stroke-opacity:1;stop-color:#000000"
       d="m 928.10352,381.91211 a 0.34955245,0.34896484 0 0 0 -0.34961,0.34961 v 6.6875 a 0.34955322,0.34896562 0 0 0 0.34961,0.34961 h 9.49023 a 0.34955165,0.34896407 0 0 0 0.34961,-0.34961 v -5.58594 a 0.34955245,0.34896484 0 0 0 -0.34961,-0.34961 h -4.02539 a 0.65538328,0.65428161 0 0 1 -0.54492,-0.28906 l -0.34961,-0.52149 a 0.65538328,0.65428161 0 0 0 -0.54492,-0.29101 z"
       transform="translate(994.61963,26.918206)" />
    <path
       id="path655"
       style="font-variation-settings:normal;fill:none;fill-opacity:1;fill-rule:evenodd;stroke:#b8b8b8;stroke-width:0.793748;stroke-linecap:butt;stroke-linejoin:miter;stroke-miterlimit:4;stroke-dasharray:none;stroke-dashoffset:0;stroke-opacity:1;stop-color:#000000"
       d="m 928.10352,381.91211 a 0.34955245,0.34896484 0 0 0 -0.34961,0.34961 v 6.6875 a 0.34955322,0.34896562 0 0 0 0.34961,0.34961 h 9.49023 a 0.34955165,0.34896407 0 0 0 0.34961,-0.34961 v -5.58594 a 0.34955245,0.34896484 0 0 0 -0.34961,-0.34961 h -4.02539 a 0.65538328,0.65428161 0 0 1 -0.54492,-0.28906 l -0.34961,-0.52149 a 0.65538328,0.65428161 0 0 0 -0.54492,-0.29101 z"
       transform="translate(994.61963,26.918206)" />
    <path
       id="path656"
       style="font-variation-settings:normal;fill:none;fill-opacity:1;fill-rule:evenodd;stroke:#000000;stroke-width:2.64583;stroke-linecap:butt;stroke-linejoin:miter;stroke-miterlimit:4;stroke-dasharray:none;stroke-dashoffset:0;stroke-opacity:1;stop-color:#000000"
       d="m 928.10352,381.91211 a 0.34955245,0.34896484 0 0 0 -0.34961,0.34961 v 6.6875 a 0.34955322,0.34896562 0 0 0 0.34961,0.34961 h 9.49023 a 0.34955165,0.34896407 0 0 0 0.34961,-0.34961 v -5.58594 a 0.34955245,0.34896484 0 0 0 -0.34961,-0.34961 h -4.02539 a 0.65538328,0.65428161 0 0 1 -0.54492,-0.28906 l -0.34961,-0.52149 a 0.65538328,0.65428161 0 0 0 -0.54492,-0.29101 z"
       transform="translate(995.06719,11.080405)" />
    <path
       id="path657"
       style="font-variation-settings:normal;fill:none;fill-opacity:1;fill-rule:evenodd;stroke:#b8b8b8;stroke-width:0.793748;stroke-linecap:butt;stroke-linejoin:miter;stroke-miterlimit:4;stroke-dasharray:none;stroke-dashoffset:0;stroke-opacity:1;stop-color:#000000"
       d="m 928.10352,381.91211 a 0.34955245,0.34896484 0 0 0 -0.34961,0.34961 v 6.6875 a 0.34955322,0.34896562 0 0 0 0.34961,0.34961 h 9.49023 a 0.34955165,0.34896407 0 0 0 0.34961,-0.34961 v -5.58594 a 0.34955245,0.34896484 0 0 0 -0.34961,-0.34961 h -4.02539 a 0.65538328,0.65428161 0 0 1 -0.54492,-0.28906 l -0.34961,-0.52149 a 0.65538328,0.65428161 0 0 0 -0.54492,-0.29101 z"
       transform="translate(995.06719,11.080405)" />
    <path
       id="path658"
       style="font-variation-settings:normal;fill:none;fill-opacity:1;fill-rule:evenodd;stroke:#000000;stroke-width:2.64583;stroke-linecap:butt;stroke-linejoin:miter;stroke-miterlimit:4;stroke-dasharray:none;stroke-dashoffset:0;stroke-opacity:1;stop-color:#000000"
       d="m 928.10352,381.91211 a 0.34955245,0.34896484 0 0 0 -0.34961,0.34961 v 6.6875 a 0.34955322,0.34896562 0 0 0 0.34961,0.34961 h 9.49023 a 0.34955165,0.34896407 0 0 0 0.34961,-0.34961 v -5.58594 a 0.34955245,0.34896484 0 0 0 -0.34961,-0.34961 h -4.02539 a 0.65538328,0.65428161 0 0 1 -0.54492,-0.28906 l -0.34961,-0.52149 a 0.65538328,0.65428161 0 0 0 -0.54492,-0.29101 z"
       transform="translate(1007.6732,15.485324)" />
    <path
       id="path659"
       style="font-variation-settings:normal;fill:none;fill-opacity:1;fill-rule:evenodd;stroke:#b8b8b8;stroke-width:0.793748;stroke-linecap:butt;stroke-linejoin:miter;stroke-miterlimit:4;stroke-dasharray:none;stroke-dashoffset:0;stroke-opacity:1;stop-color:#000000"
       d="m 928.10352,381.91211 a 0.34955245,0.34896484 0 0 0 -0.34961,0.34961 v 6.6875 a 0.34955322,0.34896562 0 0 0 0.34961,0.34961 h 9.49023 a 0.34955165,0.34896407 0 0 0 0.34961,-0.34961 v -5.58594 a 0.34955245,0.34896484 0 0 0 -0.34961,-0.34961 h -4.02539 a 0.65538328,0.65428161 0 0 1 -0.54492,-0.28906 l -0.34961,-0.52149 a 0.65538328,0.65428161 0 0 0 -0.54492,-0.29101 z"
       transform="translate(1007.6732,15.485324)" />
    <g
       id="g661"
       transform="matrix(0.45203461,0,0,0.45613272,1507.6404,225.97866)"
       style="stroke-width:2.20226">
      <path
         id="path660"
         style="fill:none;fill-rule:evenodd;stroke:#b8b8b8;stroke-width:1.74804;stop-color:#000000"
         d="m 946.20794,348.72594 h 6.7409 c 0.6688,0 3.3238,2.65504 3.3238,3.32378 v 11.66011 c 0,0.66873 -0.5383,1.2071 -1.2071,1.2071 h -8.8576 c -0.6688,0 -1.2071,-0.53837 -1.2071,-1.2071 v -13.77678 c 0,-0.66874 0.5383,-1.20711 1.2071,-1.20711 z" />
      <path
         id="path661"
         style="fill:none;fill-rule:evenodd;stroke:#b8b8b8;stroke-width:1.74804;stroke-dasharray:none;stroke-opacity:1;stop-color:#000000"
         d="m 1434.7251,384.4348 h -2.8091 a 1,1 45 0 1 -1,-1 v -2.8091"
         transform="translate(-478.39616,-31.956157)" />
    </g>
    <g
       id="g663"
       transform="matrix(0.45203461,0,0,0.45613272,1500.0494,220.76656)"
       style="stroke-width:2.20226">
      <path
         id="path662"
         style="fill:none;fill-rule:evenodd;stroke:#b8b8b8;stroke-width:1.74804;stop-color:#000000"
         d="m 946.20794,348.72594 h 6.7409 c 0.6688,0 3.3238,2.65504 3.3238,3.32378 v 11.66011 c 0,0.66873 -0.5383,1.2071 -1.2071,1.2071 h -8.8576 c -0.6688,0 -1.2071,-0.53837 -1.2071,-1.2071 v -13.77678 c 0,-0.66874 0.5383,-1.20711 1.2071,-1.20711 z" />
      <path
         id="path663"
         style="fill:none;fill-rule:evenodd;stroke:#b8b8b8;stroke-width:1.74804;stroke-dasharray:none;stroke-opacity:1;stop-color:#000000"
         d="m 1434.7251,384.4348 h -2.8091 a 1,1 45 0 1 -1,-1 v -2.8091"
         transform="translate(-478.39616,-31.956157)" />
    </g>
    <g
       id="g665"
       transform="matrix(0.45203461,0,0,0.45613272,1493.0579,213.26325)"
       style="stroke-width:2.20226">
      <path
         id="path664"
         style="fill:none;fill-rule:evenodd;stroke:#b8b8b8;stroke-width:1.74804;stop-color:#000000"
         d="m 946.20794,348.72594 h 6.7409 c 0.6688,0 3.3238,2.65504 3.3238,3.32378 v 11.66011 c 0,0.66873 -0.5383,1.2071 -1.2071,1.2071 h -8.8576 c -0.6688,0 -1.2071,-0.53837 -1.2071,-1.2071 v -13.77678 c 0,-0.66874 0.5383,-1.20711 1.2071,-1.20711 z" />
      <path
         id="path665"
         style="fill:none;fill-rule:evenodd;stroke:#b8b8b8;stroke-width:1.74804;stroke-dasharray:none;stroke-opacity:1;stop-color:#000000"
         d="m 1434.7251,384.4348 h -2.8091 a 1,1 45 0 1 -1,-1 v -2.8091"
         transform="translate(-478.39616,-31.956157)" />
    </g>
  </g>
</svg>
