<?xml version="1.0" encoding="UTF-8" standalone="no"?>
<svg
   width="210mm"
   height="148mm"
   viewBox="0 0 210 148.00001"
   version="1.1"
   id="svg8"
   xmlns="http://www.w3.org/2000/svg"
   xmlns:svg="http://www.w3.org/2000/svg"
   xmlns:rdf="http://www.w3.org/1999/02/22-rdf-syntax-ns#"
   xmlns:cc="http://creativecommons.org/ns#"
   xmlns:dc="http://purl.org/dc/elements/1.1/">
  <defs
     id="defs2">
    <clipPath
       clipPathUnits="userSpaceOnUse"
       id="clipPath29">
      <rect
         style="font-variation-settings:normal;opacity:1;vector-effect:none;fill:#000000;fill-opacity:1;fill-rule:evenodd;stroke:none;stroke-width:0.264583;stroke-linecap:butt;stroke-linejoin:miter;stroke-miterlimit:4;stroke-dasharray:none;stroke-dashoffset:0;stroke-opacity:1;stop-color:#000000;stop-opacity:1"
         id="rect30"
         width="210.00002"
         height="148"
         x="1546"
         y="11.249983"
         rx="13.268725"
         ry="13.268725" />
    </clipPath>
  </defs>
  <metadata
     id="metadata5">
    <rdf:RDF>
      <cc:Work
         rdf:about="">
        <dc:format>image/svg+xml</dc:format>
        <dc:type
           rdf:resource="http://purl.org/dc/dcmitype/StillImage" />
      </cc:Work>
    </rdf:RDF>
  </metadata>
  <g
     id="layer1"
     transform="translate(-1105.9999,-168.97971)">
    <ellipse
       style="font-variation-settings:normal;opacity:1;fill:#000000;fill-opacity:1;fill-rule:evenodd;stroke:#b8b8b8;stroke-width:0.79375;stroke-linecap:butt;stroke-linejoin:miter;stroke-miterlimit:4;stroke-dasharray:none;stroke-dashoffset:0;stroke-opacity:1;stop-color:#000000;stop-opacity:1"
       id="ellipse54"
       cx="400.77661"
       cy="1171.0536"
       rx="37.183407"
       ry="60.164017"
       transform="rotate(-59.785954)" />
    <path
       style="fill:#000000;fill-opacity:0;stroke:#b8b8b8;stroke-width:0.79375;stroke-linecap:round;stroke-linejoin:round;stroke-dasharray:none;stroke-opacity:1;paint-order:stroke markers fill"
       d="m 1176.5279,261.13638 c -1.9831,-28.82315 41.5905,-63.63901 60.1861,-47.59941"
       id="path54" />
    <path
       style="fill:#000000;fill-opacity:0;stroke:#b8b8b8;stroke-width:0.79375;stroke-linecap:round;stroke-linejoin:round;stroke-dasharray:none;stroke-opacity:1;paint-order:stroke markers fill"
       d="m 1207.733,214.59041 c -12.851,-7.27543 -26.3461,-11.26692 -38.6789,-9.72424"
       id="path55" />
    <path
       style="fill:#000000;fill-opacity:1;stroke:none;stroke-width:0.793751;stroke-linecap:round;stroke-linejoin:round;stroke-dasharray:none;stroke-opacity:1;paint-order:normal"
       d="m 1200.6201,208.49739 -16.3547,-6.40393 -4.3801,2.45516 -0.5974,1.75457 16.8407,4.80157 z"
       id="path56" />
    <path
       style="fill:none;fill-opacity:1;stroke:#b8b8b8;stroke-width:0.793751;stroke-linecap:round;stroke-linejoin:round;stroke-dasharray:none;stroke-opacity:1;paint-order:normal"
       d="m 1178.9726,206.19465 c 3.0137,-7.6594 17.8693,-4.27598 17.156,4.91011"
       id="path57" />
    <path
       style="fill:none;fill-opacity:1;stroke:#b8b8b8;stroke-width:0.793751;stroke-linecap:round;stroke-linejoin:round;stroke-dasharray:none;stroke-opacity:1;paint-order:normal"
       d="m 1200.6201,208.49739 -4.4915,2.60737 -17.156,-4.91011"
       id="path58" />
    <path
       style="fill:none;fill-opacity:0;stroke:#b8b8b8;stroke-width:0.793751;stroke-linecap:round;stroke-linejoin:round;stroke-dasharray:none;stroke-opacity:1;paint-order:stroke markers fill"
       d="m 1186.2603,200.29099 c 4.7616,-2.68402 14.9299,0.86533 14.3598,8.2064"
       id="path59" />
    <path
       style="fill:none;fill-opacity:0;stroke:#b8b8b8;stroke-width:0.793751;stroke-linecap:round;stroke-linejoin:round;stroke-dasharray:none;stroke-opacity:1;paint-order:stroke markers fill"
       d="m 1181.789,202.88714 4.4913,-2.60738"
       id="path60" />
    <path
       id="path61"
       style="color:#000000;fill:none;stroke:#b8b8b8;stroke-width:0.79375;stroke-linecap:round;stroke-linejoin:round;stroke-dasharray:none"
       d="m 1165.6406,207.29182 c -0.041,-0.0191 -0.083,-0.0362 -0.1261,-0.0512 -7.9008,-2.32792 -10.2497,-4.42405 -11.1915,-6.18722 -0.4709,-0.88159 -0.6422,-1.80503 -0.8945,-2.93367 -0.2524,-1.12865 -0.6132,-2.46634 -1.5881,-3.7636 -4.1671,-5.54433 -8.8618,-6.34848 -12.8984,-5.80688 -4.0365,0.54161 -7.4967,1.92435 -10.4082,1.06867 -2.0761,-0.61017 -3.6786,-2.00874 -5.0896,-4.01216 -1.4111,-2.00342 -2.5738,-4.58352 -3.6623,-7.29258 -1.2659,-3.15027 -2.381,-6.48976 -3.9043,-9.32131 m -3.3127,0.0586 c 1.6699,2.68426 3.0829,6.4933 4.6156,10.30762 1.1138,2.77176 2.329,5.53278 3.9703,7.86309 1.6413,2.3303 3.7653,4.25733 6.5919,5.08806 4.1454,1.21833 8.0466,-0.50723 11.5724,-0.9803 3.5258,-0.47308 6.5933,-0.19847 10.2831,4.71082 0.6306,0.83913 0.8613,1.6505 1.094,2.69131 0.2328,1.04081 0.4412,2.30661 1.156,3.64474 1.3495,2.52661 4.3721,4.86227 11.5988,7.1484" />
    <path
       id="path64"
       style="fill:#000000;fill-opacity:0;stroke:#f4de90;stroke-width:0.79375;stroke-linecap:round;stroke-linejoin:round;stroke-dasharray:none;stroke-opacity:1;paint-order:stroke markers fill"
       d="m 1198.2316,209.88593 c 3.1878,1.35161 6.3638,2.92842 9.5012,4.70462 l 0.037,0.0212 c 8.7356,-4.77933 17.7216,-6.64347 24.6714,-3.71554 l -0.078,-0.0486 c -13.7888,-8.02973 -28.9842,-12.34525 -42.2435,-11.9972 h -5e-4 c -8.2929,0.23983 -15.4754,2.30179 -20.8985,5.99963 3.4184,-0.4135 6.9272,-0.38974 10.4842,-0.004" />
    <g
       id="g63"
       clip-path="url(#clipPath29)"
       transform="translate(-439.99992,157.72973)">
      <rect
         style="font-variation-settings:normal;opacity:1;fill:#000000;fill-opacity:1;fill-rule:evenodd;stroke:#b8b8b8;stroke-width:0.79375;stroke-linecap:butt;stroke-linejoin:miter;stroke-miterlimit:4;stroke-dasharray:none;stroke-dashoffset:0;stroke-opacity:1;stop-color:#000000;stop-opacity:1"
         id="rect62"
         width="26.537476"
         height="124.3376"
         x="-1188.5865"
         y="1146.6354"
         rx="12.674289"
         ry="13.268725"
         transform="rotate(-134.11773)" />
      <path
         id="path63"
         style="font-variation-settings:normal;opacity:1;fill:#000000;fill-opacity:1;fill-rule:evenodd;stroke:#b8b8b8;stroke-width:0.79375;stroke-linecap:butt;stroke-linejoin:miter;stroke-miterlimit:4;stroke-dasharray:none;stroke-dashoffset:0;stroke-opacity:1;stop-color:#000000;stop-opacity:1"
         d="m 1654.5958,14.245244 -12.9449,12.552712 c -3.7842,3.669397 -5.0012,8.908336 -3.5931,13.440057 1.891,-0.629909 3.6893,-1.691926 5.2369,-3.192585 l 8.2207,-7.971089 c 4.1771,-4.050322 5.2409,-10.017055 3.0804,-14.829095 z" />
    </g>
  </g>
</svg>
