<?xml version="1.0" encoding="UTF-8" standalone="no"?>
<svg
   width="210mm"
   height="148mm"
   viewBox="0 0 210 148.00001"
   version="1.1"
   id="svg8"
   xmlns="http://www.w3.org/2000/svg"
   xmlns:svg="http://www.w3.org/2000/svg"
   xmlns:rdf="http://www.w3.org/1999/02/22-rdf-syntax-ns#"
   xmlns:cc="http://creativecommons.org/ns#"
   xmlns:dc="http://purl.org/dc/elements/1.1/">
  <defs
     id="defs2" />
  <metadata
     id="metadata5">
    <rdf:RDF>
      <cc:Work
         rdf:about="">
        <dc:format>image/svg+xml</dc:format>
        <dc:type
           rdf:resource="http://purl.org/dc/dcmitype/StillImage" />
      </cc:Work>
    </rdf:RDF>
  </metadata>
  <g
     id="layer1"
     transform="translate(-1985.9998,-326.44195)">
    <rect
       style="font-variation-settings:normal;opacity:1;fill:#000000;fill-opacity:1;fill-rule:evenodd;stroke:#808080;stroke-width:0.79375;stroke-linecap:butt;stroke-linejoin:miter;stroke-miterlimit:4;stroke-dasharray:none;stroke-dashoffset:0;stroke-opacity:1;stop-color:#000000;stop-opacity:1"
       id="rect669"
       width="26.310425"
       height="25.912956"
       x="2018.7506"
       y="380.98486"
       rx="3.7183502"
       ry="3.7183504" />
    <path
       id="path737"
       style="font-variation-settings:normal;fill:#000000;fill-opacity:1;fill-rule:evenodd;stroke:#b8b8b8;stroke-width:0.79375;stroke-linecap:butt;stroke-linejoin:miter;stroke-miterlimit:4;stroke-dasharray:none;stroke-dashoffset:0;stroke-opacity:1;stop-color:#000000"
       d="m 2119.8025,348.45316 c -0.6779,0 -1.2237,0.54578 -1.2237,1.2237 v 4.57439 h 5.8229 v -5.79809 z m 6.66,0 v 5.79809 h 5.8224 v -4.57439 c 0,-0.67792 -0.5458,-1.2237 -1.2237,-1.2237 z m -7.8837,7.85843 v 4.62401 c 0,0.67791 0.5458,1.2237 1.2237,1.2237 h 4.5992 v -5.84771 z m 7.8837,0 v 5.84771 h 4.5987 c 0.6779,0 1.2237,-0.54579 1.2237,-1.2237 v -4.62401 z" />
    <g
       id="g739"
       transform="translate(-14.182578,-38.8879)">
      <path
         style="fill:#f4de90;fill-opacity:1;stroke:#b8b8b8;stroke-width:0.79375;stroke-linecap:round;stroke-linejoin:round;stroke-dasharray:none;stroke-opacity:1;paint-order:normal"
         d="m 2155.693,390.8726 v 6.64305"
         id="path738" />
      <path
         style="fill:#f4de90;fill-opacity:1;stroke:#b8b8b8;stroke-width:0.79375;stroke-linecap:round;stroke-linejoin:round;stroke-dasharray:none;stroke-opacity:1;paint-order:normal"
         d="m 2159.0145,394.19412 h -6.643"
         id="path739" />
    </g>
    <path
       id="rect740"
       style="opacity:1;fill:none;fill-rule:evenodd;stroke:#b8b8b8;stroke-width:0.79375;stroke-linecap:round;stroke-linejoin:round;stop-color:#000000;stop-opacity:1"
       d="m 2149.8402,349.24428 h 2.8745 c 2.4287,0 4.384,1.95524 4.384,4.38395 v 2.87438 c 0,2.42871 -1.9553,4.38395 -4.384,4.38395 h -2.8745 z" />
    <path
       id="path741"
       style="font-variation-settings:normal;fill:#000000;fill-opacity:1;fill-rule:evenodd;stroke:#b8b8b8;stroke-width:0.79375;stroke-linecap:butt;stroke-linejoin:miter;stroke-miterlimit:4;stroke-dasharray:none;stroke-dashoffset:0;stroke-opacity:1;stop-color:#000000"
       d="m 2026.2765,387.08828 c -0.6779,0 -1.2237,0.54578 -1.2237,1.2237 v 4.57439 h 5.8229 v -5.79809 z m 6.66,0 v 5.79809 h 5.8224 v -4.57439 c 0,-0.67792 -0.5458,-1.2237 -1.2237,-1.2237 z m -7.8837,7.85843 v 4.62401 c 0,0.67791 0.5458,1.2237 1.2237,1.2237 h 4.5992 v -5.84771 z m 7.8837,0 v 5.84771 h 4.5987 c 0.6779,0 1.2237,-0.54579 1.2237,-1.2237 v -4.62401 z" />
    <rect
       style="font-variation-settings:normal;opacity:1;fill:#000000;fill-opacity:1;fill-rule:evenodd;stroke:#808080;stroke-width:0.79375;stroke-linecap:butt;stroke-linejoin:miter;stroke-miterlimit:4;stroke-dasharray:none;stroke-dashoffset:0;stroke-opacity:1;stop-color:#000000;stop-opacity:1"
       id="rect742"
       width="26.310425"
       height="25.912956"
       x="2049.3923"
       y="380.98486"
       rx="3.7183502"
       ry="3.7183504" />
    <path
       id="path742"
       style="opacity:1;fill:none;fill-rule:evenodd;stroke:#b8b8b8;stroke-width:0.79375;stroke-linecap:round;stroke-linejoin:round;stop-color:#000000;stop-opacity:1"
       d="m 2066.1768,399.76248 h -7.2585 V 388.1202 h 7.2585" />
    <path
       style="fill:none;fill-opacity:1;stroke:#b8b8b8;stroke-width:0.79375;stroke-linecap:round;stroke-linejoin:round;stroke-dasharray:none;stroke-opacity:1;paint-order:normal"
       d="m 2058.9183,393.94134 h 4.6744"
       id="path743" />
    <path
       id="path744"
       style="font-variation-settings:normal;fill:#000000;fill-opacity:1;fill-rule:evenodd;stroke:#b8b8b8;stroke-width:0.79375;stroke-linecap:butt;stroke-linejoin:miter;stroke-miterlimit:4;stroke-dasharray:none;stroke-dashoffset:0;stroke-opacity:1;stop-color:#000000"
       d="m 2049.6683,432.46202 c -0.6779,0 -1.2237,0.54578 -1.2237,1.2237 v 4.57439 h 5.8229 v -5.79809 z m 6.66,0 v 5.79809 h 5.8224 v -4.57439 c 0,-0.67792 -0.5458,-1.2237 -1.2237,-1.2237 z m -7.8837,7.85843 v 4.62401 c 0,0.67791 0.5458,1.2237 1.2237,1.2237 h 4.5992 v -5.84771 z m 7.8837,0 v 5.84771 h 4.5987 c 0.6779,0 1.2237,-0.54579 1.2237,-1.2237 v -4.62401 z" />
    <g
       id="g746"
       transform="translate(-84.316807,45.120956)">
      <path
         style="fill:#f4de90;fill-opacity:1;stroke:#b8b8b8;stroke-width:0.79375;stroke-linecap:round;stroke-linejoin:round;stroke-dasharray:none;stroke-opacity:1;paint-order:normal"
         d="m 2155.693,390.8726 v 6.64305"
         id="path745" />
      <path
         style="fill:#f4de90;fill-opacity:1;stroke:#b8b8b8;stroke-width:0.79375;stroke-linecap:round;stroke-linejoin:round;stroke-dasharray:none;stroke-opacity:1;paint-order:normal"
         d="m 2159.0145,394.19412 h -6.643"
         id="path746" />
    </g>
    <path
       id="path747"
       style="opacity:1;fill:none;fill-rule:evenodd;stroke:#b8b8b8;stroke-width:0.79375;stroke-linecap:round;stroke-linejoin:round;stop-color:#000000;stop-opacity:1"
       d="m 2081.8228,444.89542 v -11.64228 c 1e-4,1.46124 -1.1845,2.64582 -2.6457,2.64584" />
    <rect
       style="font-variation-settings:normal;opacity:1;fill:#000000;fill-opacity:1;fill-rule:evenodd;stroke:#808080;stroke-width:0.79375;stroke-linecap:butt;stroke-linejoin:miter;stroke-miterlimit:4;stroke-dasharray:none;stroke-dashoffset:0;stroke-opacity:1;stop-color:#000000;stop-opacity:1"
       id="rect748"
       width="26.310425"
       height="25.912956"
       x="2113.6987"
       y="415.23453"
       rx="3.7183502"
       ry="3.7183504" />
    <path
       id="path748"
       style="font-variation-settings:normal;fill:#000000;fill-opacity:1;fill-rule:evenodd;stroke:#b8b8b8;stroke-width:0.79375;stroke-linecap:butt;stroke-linejoin:miter;stroke-miterlimit:4;stroke-dasharray:none;stroke-dashoffset:0;stroke-opacity:1;stop-color:#000000"
       d="m 2121.2245,421.33794 c -0.6779,0 -1.2237,0.54578 -1.2237,1.2237 v 4.57439 h 5.8229 v -5.79809 z m 6.66,0 v 5.79809 h 5.8224 v -4.57439 c 0,-0.67792 -0.5458,-1.2237 -1.2237,-1.2237 z m -7.8837,7.85843 v 4.62401 c 0,0.67791 0.5458,1.2237 1.2237,1.2237 h 4.5992 v -5.84771 z m 7.8837,0 v 5.84771 h 4.5987 c 0.6779,0 1.2237,-0.54579 1.2237,-1.2237 v -4.62401 z" />
    <rect
       style="font-variation-settings:normal;opacity:1;fill:#000000;fill-opacity:1;fill-rule:evenodd;stroke:#808080;stroke-width:0.79375;stroke-linecap:butt;stroke-linejoin:miter;stroke-miterlimit:4;stroke-dasharray:none;stroke-dashoffset:0;stroke-opacity:1;stop-color:#000000;stop-opacity:1"
       id="rect749"
       width="26.310425"
       height="25.912956"
       x="2144.3403"
       y="415.23453"
       rx="3.7183502"
       ry="3.7183504" />
    <g
       id="g758"
       transform="matrix(0.70213092,0,0,0.69871245,642.35142,129.00862)"
       style="stroke-width:1.42772">
      <path
         style="fill:none;fill-opacity:1;stroke:#b8b8b8;stroke-width:1.13325;stroke-linecap:round;stroke-linejoin:round;stroke-dasharray:none;stroke-opacity:1;paint-order:normal"
         d="m 2155.8243,424.10385 -4.9819,4.08715 4.9819,4.08717"
         id="path757" />
      <path
         style="fill:none;fill-opacity:1;stroke:#b8b8b8;stroke-width:1.13325;stroke-linecap:round;stroke-linejoin:round;stroke-dasharray:none;stroke-opacity:1;paint-order:normal"
         d="m 2151.2007,428.19101 h 13.8015"
         id="path758" />
    </g>
  </g>
</svg>
