<?xml version="1.0" encoding="UTF-8" standalone="no"?>
<svg
   width="210mm"
   height="148mm"
   viewBox="0 0 210 148.00001"
   version="1.1"
   id="svg8"
   xmlns="http://www.w3.org/2000/svg"
   xmlns:svg="http://www.w3.org/2000/svg"
   xmlns:rdf="http://www.w3.org/1999/02/22-rdf-syntax-ns#"
   xmlns:cc="http://creativecommons.org/ns#"
   xmlns:dc="http://purl.org/dc/elements/1.1/">
  <defs
     id="defs2" />
  <metadata
     id="metadata5">
    <rdf:RDF>
      <cc:Work
         rdf:about="">
        <dc:format>image/svg+xml</dc:format>
        <dc:type
           rdf:resource="http://purl.org/dc/dcmitype/StillImage" />
      </cc:Work>
    </rdf:RDF>
  </metadata>
  <g
     id="layer1"
     transform="translate(-1766,-11.249983)">
    <ellipse
       style="font-variation-settings:normal;opacity:1;fill:#000000;fill-opacity:1;fill-rule:evenodd;stroke:#b8b8b8;stroke-width:0.79375;stroke-linecap:butt;stroke-linejoin:miter;stroke-miterlimit:4;stroke-dasharray:none;stroke-dashoffset:0;stroke-opacity:1;stop-color:#000000;stop-opacity:1"
       id="path30"
       cx="869.21198"
       cy="1662.0189"
       rx="37.183407"
       ry="60.164017"
       transform="rotate(-59.785954)" />
    <path
       style="fill:#000000;fill-opacity:0;stroke:#b8b8b8;stroke-width:0.79375;stroke-linecap:round;stroke-linejoin:round;stroke-dasharray:none;stroke-opacity:1;paint-order:stroke markers fill"
       d="m 1836.5278,103.40665 c -1.9831,-28.823145 41.5905,-63.639011 60.1861,-47.599406"
       id="path31" />
    <path
       style="fill:#000000;fill-opacity:0;stroke:#b8b8b8;stroke-width:0.79375;stroke-linecap:round;stroke-linejoin:round;stroke-dasharray:none;stroke-opacity:1;paint-order:stroke markers fill"
       d="m 1867.7329,56.860679 c -12.851,-7.275422 -26.3461,-11.266916 -38.6789,-9.724236"
       id="path32" />
    <path
       style="fill:#000000;fill-opacity:1;stroke:none;stroke-width:0.793751;stroke-linecap:round;stroke-linejoin:round;stroke-dasharray:none;stroke-opacity:1;paint-order:normal"
       d="m 1860.62,50.767659 -16.3547,-6.403921 -4.3801,2.455158 -0.5974,1.754564 16.8407,4.801577 z"
       id="path39" />
    <path
       style="fill:none;fill-opacity:1;stroke:#b8b8b8;stroke-width:0.793751;stroke-linecap:round;stroke-linejoin:round;stroke-dasharray:none;stroke-opacity:1;paint-order:normal"
       d="m 1838.9725,48.464923 c 3.0137,-7.659395 17.8693,-4.27598 17.156,4.910114"
       id="path36" />
    <path
       style="fill:none;fill-opacity:1;stroke:#b8b8b8;stroke-width:0.793751;stroke-linecap:round;stroke-linejoin:round;stroke-dasharray:none;stroke-opacity:1;paint-order:normal"
       d="m 1860.62,50.767661 -4.4915,2.607377 -17.156,-4.910117"
       id="path35" />
    <path
       style="fill:none;fill-opacity:0;stroke:#b8b8b8;stroke-width:0.793751;stroke-linecap:round;stroke-linejoin:round;stroke-dasharray:none;stroke-opacity:1;paint-order:stroke markers fill"
       d="m 1846.2602,42.56126 c 4.7616,-2.684016 14.9299,0.865331 14.3598,8.206401"
       id="path37" />
    <path
       style="fill:none;fill-opacity:0;stroke:#b8b8b8;stroke-width:0.793751;stroke-linecap:round;stroke-linejoin:round;stroke-dasharray:none;stroke-opacity:1;paint-order:stroke markers fill"
       d="m 1841.7889,45.157414 4.4913,-2.607378"
       id="path38" />
    <path
       id="path40"
       style="color:#000000;fill:none;stroke:#b8b8b8;stroke-width:0.79375;stroke-linecap:round;stroke-linejoin:round;stroke-dasharray:none"
       d="m 1825.6405,49.562091 c -0.041,-0.01908 -0.083,-0.03616 -0.1261,-0.05116 -7.9008,-2.327919 -10.2497,-4.424047 -11.1915,-6.18722 -0.4709,-0.881586 -0.6422,-1.805026 -0.8945,-2.933671 -0.2524,-1.128644 -0.6132,-2.466337 -1.5881,-3.763595 -4.1671,-5.544328 -8.8618,-6.348486 -12.8984,-5.806881 -4.0365,0.541605 -7.4967,1.924346 -10.4082,1.068669 -2.0761,-0.610166 -3.6786,-2.008736 -5.0896,-4.012158 -1.4111,-2.003422 -2.5738,-4.58352 -3.6623,-7.292579 -1.2749,-3.172623 -2.3968,-6.537149 -3.9368,-9.381494 m -3.2679,0.13858 c 1.6645,2.683164 3.0744,6.482862 4.6033,10.287812 1.1138,2.771761 2.329,5.532782 3.9703,7.863086 1.6413,2.330303 3.7653,4.257331 6.5919,5.088062 4.1454,1.21833 8.0466,-0.507224 11.5724,-0.980302 3.5258,-0.473078 6.5933,-0.198464 10.2831,4.710824 0.6306,0.839128 0.8613,1.650499 1.094,2.691308 0.2328,1.040809 0.4412,2.306607 1.156,3.644739 1.3495,2.52661 4.3721,4.862276 11.5988,7.148401" />
  </g>
</svg>
