<?xml version="1.0" encoding="UTF-8" standalone="no"?>
<svg
   width="210mm"
   height="148mm"
   viewBox="0 0 210 148.00001"
   version="1.1"
   id="svg8"
   xmlns="http://www.w3.org/2000/svg"
   xmlns:svg="http://www.w3.org/2000/svg"
   xmlns:rdf="http://www.w3.org/1999/02/22-rdf-syntax-ns#"
   xmlns:cc="http://creativecommons.org/ns#"
   xmlns:dc="http://purl.org/dc/elements/1.1/">
  <defs
     id="defs2">
    <clipPath
       clipPathUnits="userSpaceOnUse"
       id="clipPath29">
      <rect
         style="font-variation-settings:normal;opacity:1;vector-effect:none;fill:#000000;fill-opacity:1;fill-rule:evenodd;stroke:none;stroke-width:0.264583;stroke-linecap:butt;stroke-linejoin:miter;stroke-miterlimit:4;stroke-dasharray:none;stroke-dashoffset:0;stroke-opacity:1;stop-color:#000000;stop-opacity:1"
         id="rect30"
         width="210.00002"
         height="148"
         x="1546"
         y="11.249983"
         rx="13.268725"
         ry="13.268725" />
    </clipPath>
  </defs>
  <metadata
     id="metadata5">
    <rdf:RDF>
      <cc:Work
         rdf:about="">
        <dc:format>image/svg+xml</dc:format>
        <dc:type
           rdf:resource="http://purl.org/dc/dcmitype/StillImage" />
      </cc:Work>
    </rdf:RDF>
  </metadata>
  <g
     id="layer1"
     transform="translate(-1986,-11.249983)">
    <ellipse
       style="font-variation-settings:normal;opacity:1;fill:#000000;fill-opacity:1;fill-rule:evenodd;stroke:#b8b8b8;stroke-width:0.79375;stroke-linecap:butt;stroke-linejoin:miter;stroke-miterlimit:4;stroke-dasharray:none;stroke-dashoffset:0;stroke-opacity:1;stop-color:#000000;stop-opacity:1"
       id="ellipse41"
       cx="979.92297"
       cy="1852.1322"
       rx="37.183407"
       ry="60.164017"
       transform="rotate(-59.785954)" />
    <path
       style="fill:#000000;fill-opacity:0;stroke:#b8b8b8;stroke-width:0.79375;stroke-linecap:round;stroke-linejoin:round;stroke-dasharray:none;stroke-opacity:1;paint-order:stroke markers fill"
       d="m 2056.5279,103.40665 c -1.9831,-28.823145 41.5905,-63.639011 60.1861,-47.599406"
       id="path41" />
    <path
       style="fill:#000000;fill-opacity:0;stroke:#b8b8b8;stroke-width:0.79375;stroke-linecap:round;stroke-linejoin:round;stroke-dasharray:none;stroke-opacity:1;paint-order:stroke markers fill"
       d="m 2087.733,56.860679 c -12.851,-7.275422 -26.3461,-11.266916 -38.6789,-9.724236"
       id="path42" />
    <path
       style="fill:#000000;fill-opacity:1;stroke:none;stroke-width:0.793751;stroke-linecap:round;stroke-linejoin:round;stroke-dasharray:none;stroke-opacity:1;paint-order:normal"
       d="m 2080.6201,50.767659 -16.3547,-6.403921 -4.3801,2.455158 -0.5974,1.754564 16.8407,4.801577 z"
       id="path43" />
    <path
       style="fill:none;fill-opacity:1;stroke:#b8b8b8;stroke-width:0.793751;stroke-linecap:round;stroke-linejoin:round;stroke-dasharray:none;stroke-opacity:1;paint-order:normal"
       d="m 2058.9726,48.464923 c 3.0137,-7.659395 17.8693,-4.27598 17.156,4.910114"
       id="path44" />
    <path
       style="fill:none;fill-opacity:1;stroke:#b8b8b8;stroke-width:0.793751;stroke-linecap:round;stroke-linejoin:round;stroke-dasharray:none;stroke-opacity:1;paint-order:normal"
       d="m 2080.6201,50.767661 -4.4915,2.607377 -17.156,-4.910117"
       id="path45" />
    <path
       style="fill:none;fill-opacity:0;stroke:#b8b8b8;stroke-width:0.793751;stroke-linecap:round;stroke-linejoin:round;stroke-dasharray:none;stroke-opacity:1;paint-order:stroke markers fill"
       d="m 2066.2603,42.56126 c 4.7616,-2.684016 14.9299,0.865331 14.3598,8.206401"
       id="path46" />
    <path
       style="fill:none;fill-opacity:0;stroke:#b8b8b8;stroke-width:0.793751;stroke-linecap:round;stroke-linejoin:round;stroke-dasharray:none;stroke-opacity:1;paint-order:stroke markers fill"
       d="m 2061.789,45.157414 4.4913,-2.607378"
       id="path47" />
    <path
       id="path48"
       style="color:#000000;fill:none;stroke:#b8b8b8;stroke-width:0.79375;stroke-linecap:round;stroke-linejoin:round;stroke-dasharray:none"
       d="m 2045.6406,49.562091 c -0.041,-0.01908 -0.083,-0.03616 -0.1261,-0.05116 -7.9008,-2.327919 -10.2497,-4.424047 -11.1915,-6.18722 -0.4709,-0.881586 -0.6422,-1.805026 -0.8945,-2.933671 -0.2524,-1.128644 -0.6132,-2.466337 -1.5881,-3.763595 -4.1671,-5.544328 -8.8618,-6.348486 -12.8984,-5.806881 -4.0365,0.541605 -7.4967,1.924346 -10.4082,1.068669 -2.0761,-0.610166 -3.6786,-2.008736 -5.0896,-4.012158 -1.4111,-2.003422 -2.5738,-4.58352 -3.6623,-7.292579 -1.2677,-3.154802 -2.3842,-6.499357 -3.9109,-9.333513 m -3.4419,-0.143974 c 1.7295,2.693504 3.1774,6.605161 4.7514,10.522385 1.1138,2.771761 2.329,5.532782 3.9703,7.863086 1.6413,2.330303 3.7653,4.257331 6.5919,5.088062 4.1454,1.21833 8.0466,-0.507224 11.5724,-0.980302 3.5258,-0.473078 6.5933,-0.198464 10.2831,4.710824 0.6306,0.839128 0.8613,1.650499 1.094,2.691308 0.2328,1.040809 0.4412,2.306607 1.156,3.644739 1.3495,2.52661 4.3721,4.862276 11.5988,7.148401" />
    <path
       id="ellipse48"
       style="font-variation-settings:normal;opacity:1;fill:#000000;fill-opacity:1;fill-rule:evenodd;stroke:#f4de90;stroke-width:0.79375;stroke-linecap:butt;stroke-linejoin:miter;stroke-miterlimit:4;stroke-dasharray:none;stroke-dashoffset:0;stroke-opacity:1;stop-color:#000000;stop-opacity:1"
       d="m 993.05122,1798.2911 -0.003,4e-4 c -0.78427,-1.3002 -1.63088,-2.5473 -2.53518,-3.7424 -3.43462,-1.6827 -7.00171,-2.5521 -10.59027,-2.581 -15.02738,0.038 -28.56344,14.7077 -34.30473,37.178 14.599,-9.841 39.58397,-6.1876 55.85176,3.6232 l 0.01,-0.038 c -0.044,-3.6074 -0.2844,-7.1455 -0.7209,-10.5828 l -2.10805,-1.1991 -4.39162,-17.2962 c 0.52816,-0.081 1.04096,-0.094 1.53637,-0.049 -0.82031,-1.8467 -1.72729,-3.6263 -2.74463,-5.3128 z"
       transform="rotate(-59.785954)" />
    <g
       id="g51"
       clip-path="url(#clipPath29)"
       transform="translate(440.00007)">
      <rect
         style="font-variation-settings:normal;opacity:1;fill:#000000;fill-opacity:1;fill-rule:evenodd;stroke:#b8b8b8;stroke-width:0.79375;stroke-linecap:butt;stroke-linejoin:miter;stroke-miterlimit:4;stroke-dasharray:none;stroke-dashoffset:0;stroke-opacity:1;stop-color:#000000;stop-opacity:1"
         id="rect51"
         width="26.537476"
         height="124.3376"
         x="-1179.853"
         y="1109.774"
         rx="12.674289"
         ry="13.268725"
         transform="rotate(-134.11773)" />
      <path
         id="rect53"
         style="font-variation-settings:normal;opacity:1;fill:#000000;fill-opacity:1;fill-rule:evenodd;stroke:#b8b8b8;stroke-width:0.79375;stroke-linecap:butt;stroke-linejoin:miter;stroke-miterlimit:4;stroke-dasharray:none;stroke-dashoffset:0;stroke-opacity:1;stop-color:#000000;stop-opacity:1"
         d="m 1622.0529,33.635826 -12.9449,12.552712 c -3.7842,3.669397 -5.0012,8.908336 -3.5931,13.440057 1.891,-0.629909 3.6893,-1.691926 5.2369,-3.192585 l 8.2207,-7.971089 c 4.1771,-4.050322 5.2409,-10.017055 3.0804,-14.829095 z" />
    </g>
  </g>
</svg>
