<?xml version="1.0" encoding="UTF-8" standalone="no"?>
<svg
   width="100"
   height="100"
   viewBox="0 0 26.5 26.5"
   version="1.1"
   id="svg3"
   sodipodi:docname="favicon.svg"
   inkscape:version="1.4.2 (1:1.4.2+202505120738+ebf0e940d0)"
   xmlns:inkscape="http://www.inkscape.org/namespaces/inkscape"
   xmlns:sodipodi="http://sodipodi.sourceforge.net/DTD/sodipodi-0.dtd"
   xmlns="http://www.w3.org/2000/svg"
   xmlns:svg="http://www.w3.org/2000/svg">
  <defs
     id="defs3" />
  <sodipodi:namedview
     id="namedview3"
     pagecolor="#ffffff"
     bordercolor="#666666"
     borderopacity="1.0"
     inkscape:showpageshadow="2"
     inkscape:pageopacity="0.0"
     inkscape:pagecheckerboard="0"
     inkscape:deskcolor="#d1d1d1"
     inkscape:zoom="0.93362871"
     inkscape:cx="166.55443"
     inkscape:cy="224.92882"
     inkscape:current-layer="svg3" />
  <path
     id="path13"
     style="vector-effect:none;fill:#000000;fill-opacity:1;fill-rule:evenodd;stroke:none;stroke-width:0.264998;stop-color:#000000"
     d="m 26.029177,26.029176 c 0,0 -13.648377,2.651318 -20.9290239,-4.629329 C -2.180494,14.1192 0.47082349,0.47082302 0.47082349,0.47082302 c 0,0 13.64837651,-2.65131732 20.92902351,4.62932978 7.280647,7.2806472 4.62933,20.9290232 4.62933,20.9290232 z"
     sodipodi:nodetypes="cscsc" />
  <path
     id="path14"
     style="vector-effect:none;fill:#df2230;fill-opacity:1;fill-rule:evenodd;stroke:none;stroke-width:0.264998;stop-color:#000000"
     d="m 24.247766,24.247765 c 0,0 -11.715337,1.867601 -17.7892363,-4.206299 C 0.38463004,13.967566 2.2522306,2.2522301 2.2522306,2.2522301 c 0,0 11.7153354,-1.86760013 17.7892354,4.2062996 6.0739,6.0738993 4.2063,17.7892353 4.2063,17.7892353 z"
     sodipodi:nodetypes="cscsc" />
  <path
     id="path15"
     style="vector-effect:none;fill-rule:evenodd;stroke:none;stroke-width:0.264998;stop-color:#000000"
     d="m 8.0981922,18.401804 c 0,0 -0.8570707,-5.470153 1.9881938,-8.315418 2.845264,-2.845264 8.315418,-1.9881942 8.315418,-1.9881942 0,0 0.85707,5.4701542 -1.988194,8.3154172 -2.845265,2.845265 -8.3154178,1.988195 -8.3154178,1.988195 z"
     sodipodi:nodetypes="cscsc" />
</svg>
