<?xml version="1.0" encoding="UTF-8"?>
<svg width="190.42mm" height="60.012mm" version="1.1" viewBox="0 0 190.42 60.012" xml:space="preserve" xmlns="http://www.w3.org/2000/svg"><g transform="translate(-1791.3 -1440.1)"><rect x="1791.3" y="1440.1" width="190.42" height="60.012" rx="0" ry="0" fill="#012b37" fill-rule="evenodd" stop-color="#000000"/><g transform="matrix(.075025 0 0 .075025 1665.6 1430.9)" fill="#819494"><g stroke-linecap="round" stroke-linejoin="round" stroke-width="63.676"><path d="m1902.3 670.62a3.175 3.175 0 0 0-3.1738 3.1758 3.175 3.175 0 0 0 3.1738 3.1738h33.867a3.175 3.175 0 0 0 3.1758-3.1738 3.175 3.175 0 0 0-3.1758-3.1758z" stop-color="#000000"/><path d="m1902.3 687.55a3.175 3.175 0 0 0-3.1738 3.1758 3.175 3.175 0 0 0 3.1738 3.1738h33.867a3.175 3.175 0 0 0 3.1758-3.1738 3.175 3.175 0 0 0-3.1758-3.1758z" stop-color="#000000"/><path d="m1902.3 704.48a3.175 3.175 0 0 0-3.1738 3.1758 3.175 3.175 0 0 0 3.1738 3.1738h33.867a3.175 3.175 0 0 0 3.1758-3.1738 3.175 3.175 0 0 0-3.1758-3.1758z" stop-color="#000000"/></g><g stroke-width="3.5266"><path d="m1894.9 690.73a4.2333 4.2333 0 0 1-4.2333 4.2333 4.2333 4.2333 0 0 1-4.2334-4.2333 4.2333 4.2333 0 0 1 4.2334-4.2333 4.2333 4.2333 0 0 1 4.2333 4.2333z"/><path d="m1894.9 673.79a4.2333 4.2333 0 0 1-4.2333 4.2333 4.2333 4.2333 0 0 1-4.2334-4.2333 4.2333 4.2333 0 0 1 4.2334-4.2333 4.2333 4.2333 0 0 1 4.2333 4.2333z"/><path d="m1894.9 707.66a4.2333 4.2333 0 0 1-4.2333 4.2333 4.2333 4.2333 0 0 1-4.2334-4.2333 4.2333 4.2333 0 0 1 4.2334-4.2333 4.2333 4.2333 0 0 1 4.2333 4.2333z"/></g></g><g transform="translate(-62.247 787.52)"><text x="1889.7864" y="696.68158" fill="#b58902" font-family="'Recursive Mono Linear Static'" font-size="5.6444px" letter-spacing="0px" stop-color="#000000" stroke-width="15.115" word-spacing="0px" style="-inkscape-stroke:none;line-height:1;text-decoration-color:#000000;text-decoration-line:none" xml:space="preserve"><tspan x="1889.7864" y="696.68158" fill="#b58902" font-family="'Recursive Mono Linear Static'" stroke-width="15.115">pear</tspan></text><rect x="1877.7" y="689.58" width="37.761" height="11.205" rx="3.7042" ry="3.7042" fill="none" stop-color="#000000" stroke="#0d414e" stroke-width=".26458" style="font-variation-settings:normal"/><g transform="matrix(-.072318 0 0 -.072318 2022.3 749.05)" fill="#b58902" stroke-linecap="round" stroke-linejoin="round" stroke-width="68.594"><path d="m1891.6 724.1c-2.8848 9e-5 -5.291 2.4062-5.291 5.291v16.934c0 2.8848 2.4062 5.2929 5.291 5.293h14.816v1.0566c0 4.1291-3.2791 7.4082-7.4082 7.4082a3.175 3.175 0 0 0-3.1738 3.1758 3.175 3.175 0 0 0 3.1738 3.1758c7.5609-2e-5 13.76-6.1989 13.76-13.76v-23.283c0-2.8849-2.408-5.2911-5.293-5.291zm1.0586 6.3496h13.758v14.816h-13.758z" stop-color="#000000"/><path d="m1922.3 724.1c-2.8849-5e-5 -5.291 2.4061-5.291 5.291v16.934c0 2.8849 2.4061 5.293 5.291 5.293h14.818v1.0566c0 4.1291-3.281 7.4082-7.4102 7.4082a3.175 3.175 0 0 0-3.1738 3.1758 3.175 3.175 0 0 0 3.1738 3.1758c7.561 5e-5 13.76-6.1988 13.76-13.76v-23.283c0-2.8849-2.408-5.2911-5.293-5.291zm1.0586 6.3496h13.76v14.816h-13.76z" stop-color="#000000"/></g><g transform="matrix(.072318 0 0 .072318 1770.8 641.31)" fill="#b58902" stroke-linecap="round" stroke-linejoin="round" stroke-width="68.594"><path d="m1891.6 724.1c-2.8848 9e-5 -5.291 2.4062-5.291 5.291v16.934c0 2.8848 2.4062 5.2929 5.291 5.293h14.816v1.0566c0 4.1291-3.2791 7.4082-7.4082 7.4082a3.175 3.175 0 0 0-3.1738 3.1758 3.175 3.175 0 0 0 3.1738 3.1758c7.5609-2e-5 13.76-6.1989 13.76-13.76v-23.283c0-2.8849-2.408-5.2911-5.293-5.291zm1.0586 6.3496h13.758v14.816h-13.758z" stop-color="#000000"/><path d="m1922.3 724.1c-2.8849-5e-5 -5.291 2.4061-5.291 5.291v16.934c0 2.8849 2.4061 5.293 5.291 5.293h14.818v1.0566c0 4.1291-3.281 7.4082-7.4102 7.4082a3.175 3.175 0 0 0-3.1738 3.1758 3.175 3.175 0 0 0 3.1738 3.1758c7.561 5e-5 13.76-6.1988 13.76-13.76v-23.283c0-2.8849-2.408-5.2911-5.293-5.291zm1.0586 6.3496h13.76v14.816h-13.76z" stop-color="#000000"/></g></g><g transform="translate(-19.988 787.52)"><text x="1889.7864" y="696.68158" fill="#b58902" font-family="'Recursive Mono Linear Static'" font-size="5.6444px" letter-spacing="0px" stop-color="#000000" stroke-width="15.115" word-spacing="0px" style="-inkscape-stroke:none;line-height:1;text-decoration-color:#000000;text-decoration-line:none" xml:space="preserve"><tspan x="1889.7864" y="696.68158" fill="#b58902" font-family="'Recursive Mono Linear Static'" stroke-width="15.115">banana</tspan></text><rect x="1877.7" y="689.58" width="44.489" height="11.205" rx="3.7042" ry="3.7042" fill="none" stop-color="#000000" stroke="#0d414e" stroke-width=".26458" style="font-variation-settings:normal"/><g transform="matrix(-.072318 0 0 -.072318 2022.3 749.05)" fill="#b58902" stroke-linecap="round" stroke-linejoin="round" stroke-width="68.594"><path d="m1891.6 724.1c-2.8848 9e-5 -5.291 2.4062-5.291 5.291v16.934c0 2.8848 2.4062 5.2929 5.291 5.293h14.816v1.0566c0 4.1291-3.2791 7.4082-7.4082 7.4082a3.175 3.175 0 0 0-3.1738 3.1758 3.175 3.175 0 0 0 3.1738 3.1758c7.5609-2e-5 13.76-6.1989 13.76-13.76v-23.283c0-2.8849-2.408-5.2911-5.293-5.291zm1.0586 6.3496h13.758v14.816h-13.758z" stop-color="#000000"/><path d="m1922.3 724.1c-2.8849-5e-5 -5.291 2.4061-5.291 5.291v16.934c0 2.8849 2.4061 5.293 5.291 5.293h14.818v1.0566c0 4.1291-3.281 7.4082-7.4102 7.4082a3.175 3.175 0 0 0-3.1738 3.1758 3.175 3.175 0 0 0 3.1738 3.1758c7.561 5e-5 13.76-6.1988 13.76-13.76v-23.283c0-2.8849-2.408-5.2911-5.293-5.291zm1.0586 6.3496h13.76v14.816h-13.76z" stop-color="#000000"/></g><g transform="matrix(.072318 0 0 .072318 1777.5 641.31)" fill="#b58902" stroke-linecap="round" stroke-linejoin="round" stroke-width="68.594"><path d="m1891.6 724.1c-2.8848 9e-5 -5.291 2.4062-5.291 5.291v16.934c0 2.8848 2.4062 5.2929 5.291 5.293h14.816v1.0566c0 4.1291-3.2791 7.4082-7.4082 7.4082a3.175 3.175 0 0 0-3.1738 3.1758 3.175 3.175 0 0 0 3.1738 3.1758c7.5609-2e-5 13.76-6.1989 13.76-13.76v-23.283c0-2.8849-2.408-5.2911-5.293-5.291zm1.0586 6.3496h13.758v14.816h-13.758z" stop-color="#000000"/><path d="m1922.3 724.1c-2.8849-5e-5 -5.291 2.4061-5.291 5.291v16.934c0 2.8849 2.4061 5.293 5.291 5.293h14.818v1.0566c0 4.1291-3.281 7.4082-7.4102 7.4082a3.175 3.175 0 0 0-3.1738 3.1758 3.175 3.175 0 0 0 3.1738 3.1758c7.561 5e-5 13.76-6.1988 13.76-13.76v-23.283c0-2.8849-2.408-5.2911-5.293-5.291zm1.0586 6.3496h13.76v14.816h-13.76z" stop-color="#000000"/></g></g><g transform="translate(28.999 787.52)"><text x="1889.7864" y="696.68158" fill="#b58902" font-family="'Recursive Mono Linear Static'" font-size="5.6444px" letter-spacing="0px" stop-color="#000000" stroke-width="15.115" word-spacing="0px" style="-inkscape-stroke:none;line-height:1;text-decoration-color:#000000;text-decoration-line:none" xml:space="preserve"><tspan x="1889.7864" y="696.68158" fill="#b58902" font-family="'Recursive Mono Linear Static'" stroke-width="15.115">apple</tspan></text><rect x="1877.7" y="689.58" width="41.008" height="11.205" rx="3.7042" ry="3.7042" fill="none" stop-color="#000000" stroke="#0d414e" stroke-width=".26458" style="font-variation-settings:normal"/><g transform="matrix(-.072318 0 0 -.072318 2022.3 749.05)" fill="#b58902" stroke-linecap="round" stroke-linejoin="round" stroke-width="68.594"><path d="m1891.6 724.1c-2.8848 9e-5 -5.291 2.4062-5.291 5.291v16.934c0 2.8848 2.4062 5.2929 5.291 5.293h14.816v1.0566c0 4.1291-3.2791 7.4082-7.4082 7.4082a3.175 3.175 0 0 0-3.1738 3.1758 3.175 3.175 0 0 0 3.1738 3.1758c7.5609-2e-5 13.76-6.1989 13.76-13.76v-23.283c0-2.8849-2.408-5.2911-5.293-5.291zm1.0586 6.3496h13.758v14.816h-13.758z" stop-color="#000000"/><path d="m1922.3 724.1c-2.8849-5e-5 -5.291 2.4061-5.291 5.291v16.934c0 2.8849 2.4061 5.293 5.291 5.293h14.818v1.0566c0 4.1291-3.281 7.4082-7.4102 7.4082a3.175 3.175 0 0 0-3.1738 3.1758 3.175 3.175 0 0 0 3.1738 3.1758c7.561 5e-5 13.76-6.1988 13.76-13.76v-23.283c0-2.8849-2.408-5.2911-5.293-5.291zm1.0586 6.3496h13.76v14.816h-13.76z" stop-color="#000000"/></g><g transform="matrix(.072318 0 0 .072318 1774 641.31)" fill="#b58902" stroke-linecap="round" stroke-linejoin="round" stroke-width="68.594"><path d="m1891.6 724.1c-2.8848 9e-5 -5.291 2.4062-5.291 5.291v16.934c0 2.8848 2.4062 5.2929 5.291 5.293h14.816v1.0566c0 4.1291-3.2791 7.4082-7.4082 7.4082a3.175 3.175 0 0 0-3.1738 3.1758 3.175 3.175 0 0 0 3.1738 3.1758c7.5609-2e-5 13.76-6.1989 13.76-13.76v-23.283c0-2.8849-2.408-5.2911-5.293-5.291zm1.0586 6.3496h13.758v14.816h-13.758z" stop-color="#000000"/><path d="m1922.3 724.1c-2.8849-5e-5 -5.291 2.4061-5.291 5.291v16.934c0 2.8849 2.4061 5.293 5.291 5.293h14.818v1.0566c0 4.1291-3.281 7.4082-7.4102 7.4082a3.175 3.175 0 0 0-3.1738 3.1758 3.175 3.175 0 0 0 3.1738 3.1758c7.561 5e-5 13.76-6.1988 13.76-13.76v-23.283c0-2.8849-2.408-5.2911-5.293-5.291zm1.0586 6.3496h13.76v14.816h-13.76z" stop-color="#000000"/></g></g><rect x="1803.1" y="1477.1" width="148.8" height="11.205" rx="1.0583" ry="1.0583" fill="none" stop-color="#000000" stroke="#819494" stroke-width=".26458" style="font-variation-settings:normal"/><text x="1813.3959" y="1457.0238" fill="#268bd3" font-family="'Recursive Mono Linear Static'" font-size="5.6444px" letter-spacing="0px" stop-color="#000000" stroke-width="15.115" word-spacing="0px" style="-inkscape-stroke:none;line-height:1;text-decoration-color:#000000;text-decoration-line:none" xml:space="preserve"><tspan x="1813.3959" y="1457.0238" fill="#268bd3" font-family="'Recursive Mono Linear Static'" stroke-width="15.115">print</tspan></text><g transform="matrix(.059335 0 0 .059335 1700.6 1418)" fill="#268bd3" stroke-linecap="round" stroke-linejoin="round" stroke-width="172.17"><path d="m1803 629.11a3.175 3.175 0 0 0-3.1758 3.1758 3.175 3.175 0 0 0 3.1758 3.1758h29.633a3.175 3.175 0 0 0 3.1758-3.1758 3.175 3.175 0 0 0-3.1758-3.1758z" stop-color="#000000"/><path d="m1829.1 605.83c-5.6069-9.2e-4 -10.453 4.044-11.455 9.5605l-5.9375 32.66c-0.461 2.5372-2.6283 4.3481-5.2071 4.3477h-7.7481a3.175 3.175 0 0 0-3.1757 3.1738 3.175 3.175 0 0 0 3.1757 3.1758h7.7481c5.6069 9.2e-4 10.455-4.044 11.457-9.5606l5.9356-32.66c0.4609-2.5372 2.6303-4.3461 5.209-4.3457h7.75a3.175 3.175 0 0 0 3.1738-3.1758 3.175 3.175 0 0 0-3.1738-3.1758z" stop-color="#000000"/></g><g transform="translate(-43.355 760.34)"><text x="1889.7864" y="696.68158" fill="#b58902" font-family="'Recursive Mono Linear Static'" font-size="5.6444px" letter-spacing="0px" stop-color="#000000" stroke-width="15.115" word-spacing="0px" style="-inkscape-stroke:none;line-height:1;text-decoration-color:#000000;text-decoration-line:none" xml:space="preserve"><tspan x="1889.7864" y="696.68158" fill="#b58902" font-family="'Recursive Mono Linear Static'" stroke-width="15.115">Hi, you!</tspan></text><rect x="1877.7" y="689.58" width="50.253" height="11.205" rx="3.7042" ry="3.7042" fill="none" stop-color="#000000" stroke="#0d414e" stroke-width=".26458" style="font-variation-settings:normal"/><g transform="matrix(-.072318 0 0 -.072318 2022.3 749.05)" fill="#b58902" stroke-linecap="round" stroke-linejoin="round" stroke-width="68.594"><path d="m1891.6 724.1c-2.8848 9e-5 -5.291 2.4062-5.291 5.291v16.934c0 2.8848 2.4062 5.2929 5.291 5.293h14.816v1.0566c0 4.1291-3.2791 7.4082-7.4082 7.4082a3.175 3.175 0 0 0-3.1738 3.1758 3.175 3.175 0 0 0 3.1738 3.1758c7.5609-2e-5 13.76-6.1989 13.76-13.76v-23.283c0-2.8849-2.408-5.2911-5.293-5.291zm1.0586 6.3496h13.758v14.816h-13.758z" stop-color="#000000"/><path d="m1922.3 724.1c-2.8849-5e-5 -5.291 2.4061-5.291 5.291v16.934c0 2.8849 2.4061 5.293 5.291 5.293h14.818v1.0566c0 4.1291-3.281 7.4082-7.4102 7.4082a3.175 3.175 0 0 0-3.1738 3.1758 3.175 3.175 0 0 0 3.1738 3.1758c7.561 5e-5 13.76-6.1988 13.76-13.76v-23.283c0-2.8849-2.408-5.2911-5.293-5.291zm1.0586 6.3496h13.76v14.816h-13.76z" stop-color="#000000"/></g><g transform="matrix(.072318 0 0 .072318 1783.3 641.31)" fill="#b58902" stroke-linecap="round" stroke-linejoin="round" stroke-width="68.594"><path d="m1891.6 724.1c-2.8848 9e-5 -5.291 2.4062-5.291 5.291v16.934c0 2.8848 2.4062 5.2929 5.291 5.293h14.816v1.0566c0 4.1291-3.2791 7.4082-7.4082 7.4082a3.175 3.175 0 0 0-3.1738 3.1758 3.175 3.175 0 0 0 3.1738 3.1758c7.5609-2e-5 13.76-6.1989 13.76-13.76v-23.283c0-2.8849-2.408-5.2911-5.293-5.291zm1.0586 6.3496h13.758v14.816h-13.758z" stop-color="#000000"/><path d="m1922.3 724.1c-2.8849-5e-5 -5.291 2.4061-5.291 5.291v16.934c0 2.8849 2.4061 5.293 5.291 5.293h14.818v1.0566c0 4.1291-3.281 7.4082-7.4102 7.4082a3.175 3.175 0 0 0-3.1738 3.1758 3.175 3.175 0 0 0 3.1738 3.1758c7.561 5e-5 13.76-6.1988 13.76-13.76v-23.283c0-2.8849-2.408-5.2911-5.293-5.291zm1.0586 6.3496h13.76v14.816h-13.76z" stop-color="#000000"/></g></g><rect x="1803.1" y="1449.9" width="85.695" height="11.205" rx="5.6025" ry="5.6025" fill="none" stop-color="#000000" stroke="#268bd3" stroke-width=".26458" style="font-variation-settings:normal"/><g transform="translate(-29.003 773.93)"><text x="1889.7864" y="696.68158" fill="#b58902" font-family="'Recursive Mono Linear Static'" font-size="5.6444px" letter-spacing="0px" stop-color="#000000" stroke-width="15.115" word-spacing="0px" style="-inkscape-stroke:none;line-height:1;text-decoration-color:#000000;text-decoration-line:none" xml:space="preserve"><tspan x="1889.7864" y="696.68158" fill="#b58902" font-family="'Recursive Mono Linear Static'" stroke-width="15.115">Alden Thorn</tspan></text><rect x="1877.7" y="689.58" width="61.345" height="11.205" rx="3.7042" ry="3.7042" fill="none" stop-color="#000000" stroke="#0d414e" stroke-width=".26458" style="font-variation-settings:normal"/><g transform="matrix(-.072318 0 0 -.072318 2022.3 749.05)" fill="#b58902" stroke-linecap="round" stroke-linejoin="round" stroke-width="68.594"><path d="m1891.6 724.1c-2.8848 9e-5 -5.291 2.4062-5.291 5.291v16.934c0 2.8848 2.4062 5.2929 5.291 5.293h14.816v1.0566c0 4.1291-3.2791 7.4082-7.4082 7.4082a3.175 3.175 0 0 0-3.1738 3.1758 3.175 3.175 0 0 0 3.1738 3.1758c7.5609-2e-5 13.76-6.1989 13.76-13.76v-23.283c0-2.8849-2.408-5.2911-5.293-5.291zm1.0586 6.3496h13.758v14.816h-13.758z" stop-color="#000000"/><path d="m1922.3 724.1c-2.8849-5e-5 -5.291 2.4061-5.291 5.291v16.934c0 2.8849 2.4061 5.293 5.291 5.293h14.818v1.0566c0 4.1291-3.281 7.4082-7.4102 7.4082a3.175 3.175 0 0 0-3.1738 3.1758 3.175 3.175 0 0 0 3.1738 3.1758c7.561 5e-5 13.76-6.1988 13.76-13.76v-23.283c0-2.8849-2.408-5.2911-5.293-5.291zm1.0586 6.3496h13.76v14.816h-13.76z" stop-color="#000000"/></g><g transform="matrix(.072318 0 0 .072318 1794.4 641.31)" fill="#b58902" stroke-linecap="round" stroke-linejoin="round" stroke-width="68.594"><path d="m1891.6 724.1c-2.8848 9e-5 -5.291 2.4062-5.291 5.291v16.934c0 2.8848 2.4062 5.2929 5.291 5.293h14.816v1.0566c0 4.1291-3.2791 7.4082-7.4082 7.4082a3.175 3.175 0 0 0-3.1738 3.1758 3.175 3.175 0 0 0 3.1738 3.1758c7.5609-2e-5 13.76-6.1989 13.76-13.76v-23.283c0-2.8849-2.408-5.2911-5.293-5.291zm1.0586 6.3496h13.758v14.816h-13.758z" stop-color="#000000"/><path d="m1922.3 724.1c-2.8849-5e-5 -5.291 2.4061-5.291 5.291v16.934c0 2.8849 2.4061 5.293 5.291 5.293h14.818v1.0566c0 4.1291-3.281 7.4082-7.4102 7.4082a3.175 3.175 0 0 0-3.1738 3.1758 3.175 3.175 0 0 0 3.1738 3.1758c7.561 5e-5 13.76-6.1988 13.76-13.76v-23.283c0-2.8849-2.408-5.2911-5.293-5.291zm1.0586 6.3496h13.76v14.816h-13.76z" stop-color="#000000"/></g></g><g transform="matrix(.058267 0 0 .058267 1698.8 1392.2)" fill="#db322f" stroke-linecap="round" stroke-linejoin="round" stroke-width="222.03"><path d="m1885 1309.9c-2.8767 0-5.293 2.4163-5.293 5.293v8.4648c0 2.8767 2.4163 5.293 5.293 5.293h8.4668c2.8766 0 5.291-2.4163 5.291-5.293v-8.4648c0-2.8767-2.4144-5.293-5.291-5.293zm1.0566 6.3496h6.3516v6.3516h-6.3516z" stop-color="#000000"/><path d="m1921 1293c-2.8767 0-5.291 2.4163-5.291 5.293v12.699c0 2.8767 2.4143 5.291 5.291 5.291h12.701c2.8767 0 5.2911-2.4143 5.2911-5.291v-12.699c0-2.8767-2.4144-5.293-5.2911-5.293zm1.0586 6.3516h10.584v10.582h-10.584z" stop-color="#000000"/><path d="m1921 1322.6c-2.8767 0-5.291 2.4143-5.291 5.291v12.699c0 2.8767 2.4143 5.293 5.291 5.293h12.701c2.8767 0 5.2911-2.4163 5.2911-5.293v-12.699c0-2.8767-2.4144-5.291-5.2911-5.291zm1.0586 6.3496h10.584v10.582h-10.584z" stop-color="#000000"/><path d="m1895.6 1316.2a3.175 3.175 0 0 0-3.1738 3.1758 3.175 3.175 0 0 0 3.1738 3.1758h12.701a3.175 3.175 0 0 0 3.1738-3.1758 3.175 3.175 0 0 0-3.1738-3.1758z" stop-color="#000000"/><path d="m1912.5 1301.4c-4.0539 0-7.4082 3.3543-7.4082 7.4082v21.168c0 4.0539 3.3543 7.4083 7.4082 7.4082h6.3496a3.175 3.175 0 0 0 3.1758-3.1758 3.175 3.175 0 0 0-3.1758-3.1758h-6.3496c-0.6221 0-1.0586-0.4345-1.0586-1.0566v-21.168c0-0.6221 0.4365-1.0586 1.0586-1.0586h6.3496a3.175 3.175 0 0 0 3.1758-3.1738 3.175 3.175 0 0 0-3.1758-3.1758z" stop-color="#000000"/></g><g transform="matrix(.055693 0 0 .055693 1723.2 1433)" fill="#d33683"><circle cx="1782.6" cy="636.52" r="4.2333" stroke-width="4.7507"/><path d="m1776.6 619.6c-11.9 0.38172-21.491 10.273-21.496 22.18v6e-3 4e-3c0 2.1093 0.3924 4.1787 0.9786 6.1973l-14.246 14.244a3.1753 3.1753 0 0 0 0 2e-3c-0.9897 0.99076-1.5482 2.3379-1.5489 3.7383v7.5918c0 2.8848 2.4082 5.2909 5.293 5.291h8.4668a3.1753 3.1753 0 0 0 3.1738-3.1738v-3.1758h3.1758a3.1753 3.1753 0 0 0 3.1738-3.1758v-3.1738h3.1758a3.1753 3.1753 0 0 0 2.2442-0.92969l2.166-2.1641c2.0212 0.58682 4.0929 0.98216 6.2051 0.97656 11.909-4e-3 21.799-9.5955 22.191-21.496 0.4197-12.798-10.152-23.366-22.949-22.941zm0.2071 6.3457c9.2211-0.30737 16.699 7.1654 16.396 16.387-0.28 8.5014-7.351 15.355-15.854 15.355a3.1753 3.1753 0 0 0-0.01 0c-2.0316 5e-3 -4.0465-0.38108-5.9316-1.1387a3.1753 3.1753 0 0 0-3.4277 0.70117l-2.5547 2.5547h-5.0352a3.1753 3.1753 0 0 0-3.1758 3.1738v3.1758h-3.1738a3.1753 3.1753 0 0 0-3.1758 3.1738v3.1758h-4.2324v-6.0957l15.254-15.252a3.1753 3.1753 0 0 0 0.7012-3.4297c-0.7576-1.8851-1.1441-3.8981-1.1387-5.9297a3.1753 3.1753 0 0 0 0-8e-3c0-8.5024 6.8521-15.573 15.352-15.844z" stop-color="#000000" stroke-linecap="round" stroke-linejoin="round" stroke-width="232.66"/></g><rect x="1816.1" y="1463.5" width="28.044" height="11.205" rx="3.7042" ry="3.7042" fill="none" stop-color="#000000" stroke="#0d414e" stroke-width=".26458" style="font-variation-settings:normal"/><text x="1827.0295" y="1470.6117" fill="#d33683" font-family="'Recursive Mono Linear Static'" font-size="5.6444px" letter-spacing="0px" stop-color="#000000" stroke-width="15.115" word-spacing="0px" style="-inkscape-stroke:none;line-height:1;text-decoration-color:#000000;text-decoration-line:none" xml:space="preserve"><tspan x="1827.0295" y="1470.6117" fill="#d33683" font-family="'Recursive Mono Linear Static'" stroke-width="15.115">name</tspan></text><text x="1954.025" y="1470.6117" fill="#b58902" font-family="'Recursive Mono Linear Static'" font-size="5.6444px" letter-spacing="0px" stop-color="#000000" stroke-width="15.115" word-spacing="0px" style="-inkscape-stroke:none;line-height:1;text-decoration-color:#000000;text-decoration-line:none" xml:space="preserve"><tspan x="1954.025" y="1470.6117" fill="#b58902" font-family="'Recursive Mono Linear Static'" stroke-width="15.115">16</tspan></text><rect x="1943.7" y="1463.5" width="20.713" height="11.205" rx="3.7042" ry="3.7042" fill="none" stop-color="#000000" stroke="#0d414e" stroke-width=".26458" style="font-variation-settings:normal"/><g transform="matrix(.055693 0 0 .055693 1821.6 1433)" fill="#d33683"><circle cx="1782.6" cy="636.52" r="4.2333" stroke-width="4.7507"/><path d="m1776.6 619.6c-11.9 0.38172-21.491 10.273-21.496 22.18v6e-3 4e-3c0 2.1093 0.3924 4.1787 0.9786 6.1973l-14.246 14.244a3.1753 3.1753 0 0 0 0 2e-3c-0.9897 0.99076-1.5482 2.3379-1.5489 3.7383v7.5918c0 2.8848 2.4082 5.2909 5.293 5.291h8.4668a3.1753 3.1753 0 0 0 3.1738-3.1738v-3.1758h3.1758a3.1753 3.1753 0 0 0 3.1738-3.1758v-3.1738h3.1758a3.1753 3.1753 0 0 0 2.2442-0.92969l2.166-2.1641c2.0212 0.58682 4.0929 0.98216 6.2051 0.97656 11.909-4e-3 21.799-9.5955 22.191-21.496 0.4197-12.798-10.152-23.366-22.949-22.941zm0.2071 6.3457c9.2211-0.30737 16.699 7.1654 16.396 16.387-0.28 8.5014-7.351 15.355-15.854 15.355a3.1753 3.1753 0 0 0-0.01 0c-2.0316 5e-3 -4.0465-0.38108-5.9316-1.1387a3.1753 3.1753 0 0 0-3.4277 0.70117l-2.5547 2.5547h-5.0352a3.1753 3.1753 0 0 0-3.1758 3.1738v3.1758h-3.1738a3.1753 3.1753 0 0 0-3.1758 3.1738v3.1758h-4.2324v-6.0957l15.254-15.252a3.1753 3.1753 0 0 0 0.7012-3.4297c-0.7576-1.8851-1.1441-3.8981-1.1387-5.9297a3.1753 3.1753 0 0 0 0-8e-3c0-8.5024 6.8521-15.573 15.352-15.844z" stop-color="#000000" stroke-linecap="round" stroke-linejoin="round" stroke-width="232.66"/></g><rect x="1914.5" y="1463.5" width="24.657" height="11.205" rx="3.7042" ry="3.7042" fill="none" stop-color="#000000" stroke="#0d414e" stroke-width=".26458" style="font-variation-settings:normal"/><text x="1925.4148" y="1470.6117" fill="#d33683" font-family="'Recursive Mono Linear Static'" font-size="5.6444px" letter-spacing="0px" stop-color="#000000" stroke-width="15.115" word-spacing="0px" style="-inkscape-stroke:none;line-height:1;text-decoration-color:#000000;text-decoration-line:none" xml:space="preserve"><tspan x="1925.4148" y="1470.6117" fill="#d33683" font-family="'Recursive Mono Linear Static'" stroke-width="15.115">age</tspan></text><g transform="matrix(.05078 0 0 .05078 1848.6 1391.7)" fill="#b58902" stroke-linecap="round" stroke-linejoin="round" stroke-width="260.42"><path transform="matrix(.26458 0 0 .26458 1916.1 1464.4)" d="m225.57 100.11a12.001 12.001 0 0 0-8.2305 1.9102l-24 16a12 12 0 0 0-3.3281 16.641 12 12 0 0 0 16.641 3.3281l5.3438-3.5625v73.578a12 12 0 0 0 12 12 12 12 0 0 0 12-12v-96a12.001 12.001 0 0 0-10.426-11.895z" stop-color="#000000"/><path d="m1992.4 1510.3c-4.0566-0.1944-8.0562 2.235-9.5019 6.3204a3.175 3.175 0 0 0 1.9336 4.0507 3.175 3.175 0 0 0 4.0527-1.9336c0.6689-1.8901 2.7296-2.6866 4.4961-1.7382 1.7665 0.9483 2.239 3.1051 1.0332 4.707l-11.422 15.23a3.1753 3.1753 0 0 0 2.539 5.08h12.701a3.175 3.175 0 0 0 3.1738-3.1757 3.175 3.175 0 0 0-3.1738-3.1739h-6.3496l7.6074-10.146c3.475-4.6166 1.9855-11.386-3.1054-14.119-1.2728-0.6832-2.6302-1.0407-3.9825-1.1055z" stop-color="#000000"/><path d="m1954.2 1526.2a3.175 3.175 0 0 0-3.1738 3.1738 3.175 3.175 0 0 0 3.1738 3.1758h6.6035l-3.9121 5.5879a3.1753 3.1753 0 0 0 2.5996 4.9961c3.1392 4e-4 5.1184 2.979 3.9024 5.873s-4.7284 3.5641-6.9258 1.3223a3.175 3.175 0 0 0-4.4902-0.045 3.175 3.175 0 0 0-0.045 4.4902c5.2163 5.3218 14.43 3.5614 17.316-3.3086 2.1543-5.127-0.1956-10.77-4.621-13.309l4.873-6.9629a3.1753 3.1753 0 0 0-2.5996-4.9941z" stop-color="#000000"/></g><path d="m1966.8 1474.7c2.0031 0 2.3906-0.8997 2.3656-1.9516-0.014-0.5775-0.3987-1.2066-0.3463-1.8388 0.051-0.6165 0.5304-1.236 1.2065-1.8135-0.6761-0.5774-1.1558-1.1969-1.2065-1.8134-0.052-0.6322 0.3324-1.2613 0.3463-1.8388 0.025-1.0519-0.3625-1.9516-2.3656-1.9516l-160.79-1e-4c-2.0031 0-2.3906 0.8998-2.3656 1.9516 0.014 0.5776 0.3983 1.2066 0.3463 1.8388-0.051 0.6166-0.5304 1.2361-1.2065 1.8134 0.6761 0.5775 1.1555 1.197 1.2065 1.8135 0.052 0.6322-0.3323 1.2613-0.3463 1.8388-0.025 1.052 0.3625 1.9517 2.3656 1.9517z" fill="none" stroke="#db322f" stroke-linejoin="round" stroke-width=".26458" style="paint-order:fill markers stroke"/></g></svg>
