<?xml version="1.0" encoding="UTF-8"?>
<svg width="198.07mm" height="75.512mm" version="1.1" viewBox="0 0 198.07 75.512" xml:space="preserve" xmlns="http://www.w3.org/2000/svg"><g transform="translate(-1791.3 -1181.5)"><rect x="1791.3" y="1181.5" width="198.07" height="75.512" rx="0" ry="0" fill="#012b37" fill-rule="evenodd" stop-color="#000000"/><text x="1813.403" y="1200.36" fill="#268bd3" font-family="'Recursive Mono Linear Static'" font-size="5.6444px" letter-spacing="0px" stop-color="#000000" stroke-width="15.115" word-spacing="0px" style="-inkscape-stroke:none;line-height:1;text-decoration-color:#000000;text-decoration-line:none" xml:space="preserve"><tspan x="1813.403" y="1200.36" fill="#268bd3" font-family="'Recursive Mono Linear Static'" stroke-width="15.115">for</tspan></text><g transform="translate(-1.974 564.43)"><rect x="1829.5" y="628.82" width="31.332" height="11.205" rx="3.7042" ry="3.7042" fill="none" stop-color="#000000" stroke="#0d414e" stroke-width=".26458" style="font-variation-settings:normal"/><text x="1840.4277" y="635.92834" fill="#d33683" font-family="'Recursive Mono Linear Static'" font-size="5.6444px" letter-spacing="0px" stop-color="#000000" stroke-width="15.115" word-spacing="0px" style="-inkscape-stroke:none;line-height:1;text-decoration-color:#000000;text-decoration-line:none" xml:space="preserve"><tspan x="1840.4277" y="635.92834" fill="#d33683" font-family="'Recursive Mono Linear Static'" stroke-width="15.115">fruit</tspan></text><g transform="matrix(.059159 0 0 .059159 1728.7 596.07)" fill="#d33683" stroke-linecap="round" stroke-linejoin="round" stroke-width="125.67"><path d="m1799.3 620.91a3.175 3.175 0 0 0-3.1738 3.1758v29.633a3.175 3.175 0 0 0 3.1738 3.1738 3.175 3.175 0 0 0 3.1758-3.1738v-29.633a3.175 3.175 0 0 0-3.1758-3.1758z" stop-color="#000000"/><path transform="matrix(.26458 0 0 .26458 1765.4 615.62)" d="m40 132a12 12 0 0 0-12 12v64a12.001 12.001 0 0 0 12 12h176a12.001 12.001 0 0 0 12-12v-64a12 12 0 0 0-12-12 12 12 0 0 0-12 12v52h-152v-52a12 12 0 0 0-12-12z" stop-color="#000000"/><path transform="matrix(.26458 0 0 .26458 1765.4 615.62)" d="m88 92a12 12 0 0 0-8.4844 3.5156 12 12 0 0 0 0 16.969l40 40a12.001 12.001 0 0 0 16.969 0l40-40a12 12 0 0 0 0-16.969 12 12 0 0 0-16.969 0l-31.516 31.516-31.516-31.516a12 12 0 0 0-8.4844-3.5156z" stop-color="#000000"/></g></g><path d="m1977.8 1204.5h-170.06c-2.5414 0-4.5873-2.4987-4.5873-5.6025 0-3.1039 2.0459-5.6026 4.5873-5.6026h170.06" fill="none" stop-color="#000000" stroke="#268bd3" stroke-width=".26458"/><g transform="matrix(.059335 0 0 .059335 1700.6 1161.3)" fill="#268bd3" stroke-linecap="round" stroke-linejoin="round" stroke-width="172.17"><path d="m1803 629.11a3.175 3.175 0 0 0-3.1758 3.1758 3.175 3.175 0 0 0 3.1758 3.1758h29.633a3.175 3.175 0 0 0 3.1758-3.1758 3.175 3.175 0 0 0-3.1758-3.1758z" stop-color="#000000"/><path d="m1829.1 605.83c-5.6069-9.2e-4 -10.453 4.044-11.455 9.5605l-5.9375 32.66c-0.461 2.5372-2.6283 4.3481-5.2071 4.3477h-7.7481a3.175 3.175 0 0 0-3.1757 3.1738 3.175 3.175 0 0 0 3.1757 3.1758h7.7481c5.6069 9.2e-4 10.455-4.044 11.457-9.5606l5.9356-32.66c0.4609-2.5372 2.6303-4.3461 5.209-4.3457h7.75a3.175 3.175 0 0 0 3.1738-3.1758 3.175 3.175 0 0 0-3.1738-3.1758z" stop-color="#000000"/></g><text x="1829.278" y="1213.9463" fill="#268bd3" font-family="'Recursive Mono Linear Static'" font-size="5.6444px" letter-spacing="0px" stop-color="#000000" stroke-width="15.115" word-spacing="0px" style="-inkscape-stroke:none;line-height:1;text-decoration-color:#000000;text-decoration-line:none" xml:space="preserve"><tspan x="1829.278" y="1213.9463" fill="#268bd3" font-family="'Recursive Mono Linear Static'" stroke-width="15.115">peel</tspan></text><g transform="translate(2.2593 564.43)"><rect x="1844.5" y="642.41" width="31.332" height="11.205" rx="3.7042" ry="3.7042" fill="none" stop-color="#000000" stroke="#0d414e" stroke-width=".26458" style="font-variation-settings:normal"/><text x="1855.4187" y="649.51459" fill="#859a01" font-family="'Recursive Mono Linear Static'" font-size="5.6444px" letter-spacing="0px" stop-color="#000000" stroke-width="15.115" word-spacing="0px" style="-inkscape-stroke:none;line-height:1;text-decoration-color:#000000;text-decoration-line:none" xml:space="preserve"><tspan x="1855.4187" y="649.51459" fill="#859a01" font-family="'Recursive Mono Linear Static'" stroke-width="15.115">fruit</tspan></text><g transform="matrix(.059329 0 0 .059329 1743.2 610.15)" fill="#859a01" stroke-linecap="round" stroke-linejoin="round" stroke-width="115.26"><path d="m1802.2 610.59a3.175 3.175 0 0 0-3.1758 3.1738v29.635a3.175 3.175 0 0 0 3.1758 3.1738 3.175 3.175 0 0 0 3.1738-3.1738v-29.635a3.175 3.175 0 0 0-3.1738-3.1738z" stop-color="#000000"/><path transform="matrix(.26458 0 0 .26458 1768.3 605.3)" d="m40 132a12 12 0 0 0-12 12v64a12.001 12.001 0 0 0 12 12h176a12.001 12.001 0 0 0 12-12v-64a12 12 0 0 0-12-12 12 12 0 0 0-12 12v52h-152v-52a12 12 0 0 0-12-12z" stop-color="#000000"/><path transform="matrix(.26458 0 0 .26458 1768.3 605.3)" d="m128 20a12.001 12.001 0 0 0-8.4844 3.5156l-40 40a12 12 0 0 0 0 16.969 12 12 0 0 0 16.969 0l31.516-31.516 31.516 31.516a12 12 0 0 0 16.969 0 12 12 0 0 0 0-16.969l-40-40a12.001 12.001 0 0 0-8.4844-3.5156z" stop-color="#000000"/></g></g><path d="m1886.7 1218h-72.082m0-11.205h72.082" fill="none" stop-color="#000000" stroke="#268bd3" stroke-width=".26458"/><rect x="1819" y="1206.8" width="63.35" height="11.205" rx="5.6025" ry="5.6025" fill="none" stop-color="#000000" stroke="#268bd3" stroke-width=".26458" style="font-variation-settings:normal"/><g transform="matrix(.059335 0 0 .059335 1716.4 1174.9)" fill="#268bd3" stroke-linecap="round" stroke-linejoin="round" stroke-width="172.17"><path d="m1803 629.11a3.175 3.175 0 0 0-3.1758 3.1758 3.175 3.175 0 0 0 3.1758 3.1758h29.633a3.175 3.175 0 0 0 3.1758-3.1758 3.175 3.175 0 0 0-3.1758-3.1758z" stop-color="#000000"/><path d="m1829.1 605.83c-5.6069-9.2e-4 -10.453 4.044-11.455 9.5605l-5.9375 32.66c-0.461 2.5372-2.6283 4.3481-5.2071 4.3477h-7.7481a3.175 3.175 0 0 0-3.1757 3.1738 3.175 3.175 0 0 0 3.1757 3.1758h7.7481c5.6069 9.2e-4 10.455-4.044 11.457-9.5606l5.9356-32.66c0.4609-2.5372 2.6303-4.3461 5.209-4.3457h7.75a3.175 3.175 0 0 0 3.1738-3.1758 3.175 3.175 0 0 0-3.1738-3.1758z" stop-color="#000000"/></g><text x="1829.278" y="1227.5326" fill="#268bd3" font-family="'Recursive Mono Linear Static'" font-size="5.6444px" letter-spacing="0px" stop-color="#000000" stroke-width="15.115" word-spacing="0px" style="-inkscape-stroke:none;line-height:1;text-decoration-color:#000000;text-decoration-line:none" xml:space="preserve"><tspan x="1829.278" y="1227.5326" fill="#268bd3" font-family="'Recursive Mono Linear Static'" stroke-width="15.115">eat</tspan></text><g transform="translate(-1.3363 578.02)"><rect x="1844.5" y="642.41" width="31.332" height="11.205" rx="3.7042" ry="3.7042" fill="none" stop-color="#000000" stroke="#0d414e" stroke-width=".26458" style="font-variation-settings:normal"/><text x="1855.4187" y="649.51459" fill="#859a01" font-family="'Recursive Mono Linear Static'" font-size="5.6444px" letter-spacing="0px" stop-color="#000000" stroke-width="15.115" word-spacing="0px" style="-inkscape-stroke:none;line-height:1;text-decoration-color:#000000;text-decoration-line:none" xml:space="preserve"><tspan x="1855.4187" y="649.51459" fill="#859a01" font-family="'Recursive Mono Linear Static'" stroke-width="15.115">fruit</tspan></text><g transform="matrix(.059329 0 0 .059329 1743.2 610.15)" fill="#859a01" stroke-linecap="round" stroke-linejoin="round" stroke-width="115.26"><path d="m1802.2 610.59a3.175 3.175 0 0 0-3.1758 3.1738v29.635a3.175 3.175 0 0 0 3.1758 3.1738 3.175 3.175 0 0 0 3.1738-3.1738v-29.635a3.175 3.175 0 0 0-3.1738-3.1738z" stop-color="#000000"/><path transform="matrix(.26458 0 0 .26458 1768.3 605.3)" d="m40 132a12 12 0 0 0-12 12v64a12.001 12.001 0 0 0 12 12h176a12.001 12.001 0 0 0 12-12v-64a12 12 0 0 0-12-12 12 12 0 0 0-12 12v52h-152v-52a12 12 0 0 0-12-12z" stop-color="#000000"/><path transform="matrix(.26458 0 0 .26458 1768.3 605.3)" d="m128 20a12.001 12.001 0 0 0-8.4844 3.5156l-40 40a12 12 0 0 0 0 16.969 12 12 0 0 0 16.969 0l31.516-31.516 31.516 31.516a12 12 0 0 0 16.969 0 12 12 0 0 0 0-16.969l-40-40a12.001 12.001 0 0 0-8.4844-3.5156z" stop-color="#000000"/></g></g><rect x="1819" y="1220.4" width="59.755" height="11.205" rx="5.6025" ry="5.6025" fill="none" stop-color="#000000" stroke="#268bd3" stroke-width=".26458" style="font-variation-settings:normal"/><g transform="matrix(.059335 0 0 .059335 1716.4 1188.5)" fill="#268bd3" stroke-linecap="round" stroke-linejoin="round" stroke-width="172.17"><path d="m1803 629.11a3.175 3.175 0 0 0-3.1758 3.1758 3.175 3.175 0 0 0 3.1758 3.1758h29.633a3.175 3.175 0 0 0 3.1758-3.1758 3.175 3.175 0 0 0-3.1758-3.1758z" stop-color="#000000"/><path d="m1829.1 605.83c-5.6069-9.2e-4 -10.453 4.044-11.455 9.5605l-5.9375 32.66c-0.461 2.5372-2.6283 4.3481-5.2071 4.3477h-7.7481a3.175 3.175 0 0 0-3.1757 3.1738 3.175 3.175 0 0 0 3.1757 3.1758h7.7481c5.6069 9.2e-4 10.455-4.044 11.457-9.5606l5.9356-32.66c0.4609-2.5372 2.6303-4.3461 5.209-4.3457h7.75a3.175 3.175 0 0 0 3.1738-3.1758 3.175 3.175 0 0 0-3.1738-3.1758z" stop-color="#000000"/></g><path d="m1883.1 1231.6h-68.433m0-11.205h68.433" fill="none" stop-color="#000000" stroke="#268bd3" stroke-width=".26458"/><path d="m1803 1245.2c3.1038 0 5.6026-2.4987 5.6026-5.6025s-2.4988-5.6026-5.6026-5.6026" fill="none" stop-color="#000000" stroke="#268bd3" stroke-width=".26458"/><g transform="translate(-1.974 62.031)"><g transform="matrix(.075025 0 0 .075025 1727.9 1085)" fill="#819494"><g stroke-linecap="round" stroke-linejoin="round" stroke-width="63.676"><path d="m1902.3 670.62a3.175 3.175 0 0 0-3.1738 3.1758 3.175 3.175 0 0 0 3.1738 3.1738h33.867a3.175 3.175 0 0 0 3.1758-3.1738 3.175 3.175 0 0 0-3.1758-3.1758z" stop-color="#000000"/><path d="m1902.3 687.55a3.175 3.175 0 0 0-3.1738 3.1758 3.175 3.175 0 0 0 3.1738 3.1738h33.867a3.175 3.175 0 0 0 3.1758-3.1738 3.175 3.175 0 0 0-3.1758-3.1758z" stop-color="#000000"/><path d="m1902.3 704.48a3.175 3.175 0 0 0-3.1738 3.1758 3.175 3.175 0 0 0 3.1738 3.1738h33.867a3.175 3.175 0 0 0 3.1758-3.1738 3.175 3.175 0 0 0-3.1758-3.1758z" stop-color="#000000"/></g><g stroke-width="3.5266"><path d="m1894.9 690.73a4.2333 4.2333 0 0 1-4.2333 4.2333 4.2333 4.2333 0 0 1-4.2334-4.2333 4.2333 4.2333 0 0 1 4.2334-4.2333 4.2333 4.2333 0 0 1 4.2333 4.2333z"/><path d="m1894.9 673.79a4.2333 4.2333 0 0 1-4.2333 4.2333 4.2333 4.2333 0 0 1-4.2334-4.2333 4.2333 4.2333 0 0 1 4.2334-4.2333 4.2333 4.2333 0 0 1 4.2333 4.2333z"/><path d="m1894.9 707.66a4.2333 4.2333 0 0 1-4.2333 4.2333 4.2333 4.2333 0 0 1-4.2334-4.2333 4.2333 4.2333 0 0 1 4.2334-4.2333 4.2333 4.2333 0 0 1 4.2333 4.2333z"/></g></g><g transform="translate(48.987 441.65)"><text x="1889.7864" y="696.68158" fill="#b58902" font-family="'Recursive Mono Linear Static'" font-size="5.6444px" letter-spacing="0px" stop-color="#000000" stroke-width="15.115" word-spacing="0px" style="-inkscape-stroke:none;line-height:1;text-decoration-color:#000000;text-decoration-line:none" xml:space="preserve"><tspan x="1889.7864" y="696.68158" fill="#b58902" font-family="'Recursive Mono Linear Static'" stroke-width="15.115">banana</tspan></text><rect x="1877.7" y="689.58" width="44.489" height="11.205" rx="3.7042" ry="3.7042" fill="none" stop-color="#000000" stroke="#0d414e" stroke-width=".26458" style="font-variation-settings:normal"/><g transform="matrix(-.072318 0 0 -.072318 2022.3 749.05)" fill="#b58902" stroke-linecap="round" stroke-linejoin="round" stroke-width="68.594"><path d="m1891.6 724.1c-2.8848 9e-5 -5.291 2.4062-5.291 5.291v16.934c0 2.8848 2.4062 5.2929 5.291 5.293h14.816v1.0566c0 4.1291-3.2791 7.4082-7.4082 7.4082a3.175 3.175 0 0 0-3.1738 3.1758 3.175 3.175 0 0 0 3.1738 3.1758c7.5609-2e-5 13.76-6.1989 13.76-13.76v-23.283c0-2.8849-2.408-5.2911-5.293-5.291zm1.0586 6.3496h13.758v14.816h-13.758z" stop-color="#000000"/><path d="m1922.3 724.1c-2.8849-5e-5 -5.291 2.4061-5.291 5.291v16.934c0 2.8849 2.4061 5.293 5.291 5.293h14.818v1.0566c0 4.1291-3.281 7.4082-7.4102 7.4082a3.175 3.175 0 0 0-3.1738 3.1758 3.175 3.175 0 0 0 3.1738 3.1758c7.561 5e-5 13.76-6.1988 13.76-13.76v-23.283c0-2.8849-2.408-5.2911-5.293-5.291zm1.0586 6.3496h13.76v14.816h-13.76z" stop-color="#000000"/></g><g transform="matrix(.072318 0 0 .072318 1777.5 641.31)" fill="#b58902" stroke-linecap="round" stroke-linejoin="round" stroke-width="68.594"><path d="m1891.6 724.1c-2.8848 9e-5 -5.291 2.4062-5.291 5.291v16.934c0 2.8848 2.4062 5.2929 5.291 5.293h14.816v1.0566c0 4.1291-3.2791 7.4082-7.4082 7.4082a3.175 3.175 0 0 0-3.1738 3.1758 3.175 3.175 0 0 0 3.1738 3.1758c7.5609-2e-5 13.76-6.1989 13.76-13.76v-23.283c0-2.8849-2.408-5.2911-5.293-5.291zm1.0586 6.3496h13.758v14.816h-13.758z" stop-color="#000000"/><path d="m1922.3 724.1c-2.8849-5e-5 -5.291 2.4061-5.291 5.291v16.934c0 2.8849 2.4061 5.293 5.291 5.293h14.818v1.0566c0 4.1291-3.281 7.4082-7.4102 7.4082a3.175 3.175 0 0 0-3.1738 3.1758 3.175 3.175 0 0 0 3.1738 3.1758c7.561 5e-5 13.76-6.1988 13.76-13.76v-23.283c0-2.8849-2.408-5.2911-5.293-5.291zm1.0586 6.3496h13.76v14.816h-13.76z" stop-color="#000000"/></g></g><g transform="translate(-.00015816 441.65)"><text x="1889.7864" y="696.68158" fill="#b58902" font-family="'Recursive Mono Linear Static'" font-size="5.6444px" letter-spacing="0px" stop-color="#000000" stroke-width="15.115" word-spacing="0px" style="-inkscape-stroke:none;line-height:1;text-decoration-color:#000000;text-decoration-line:none" xml:space="preserve"><tspan x="1889.7864" y="696.68158" fill="#b58902" font-family="'Recursive Mono Linear Static'" stroke-width="15.115">orange</tspan></text><rect x="1877.7" y="689.58" width="44.489" height="11.205" rx="3.7042" ry="3.7042" fill="none" stop-color="#000000" stroke="#0d414e" stroke-width=".26458" style="font-variation-settings:normal"/><g transform="matrix(-.072318 0 0 -.072318 2022.3 749.05)" fill="#b58902" stroke-linecap="round" stroke-linejoin="round" stroke-width="68.594"><path d="m1891.6 724.1c-2.8848 9e-5 -5.291 2.4062-5.291 5.291v16.934c0 2.8848 2.4062 5.2929 5.291 5.293h14.816v1.0566c0 4.1291-3.2791 7.4082-7.4082 7.4082a3.175 3.175 0 0 0-3.1738 3.1758 3.175 3.175 0 0 0 3.1738 3.1758c7.5609-2e-5 13.76-6.1989 13.76-13.76v-23.283c0-2.8849-2.408-5.2911-5.293-5.291zm1.0586 6.3496h13.758v14.816h-13.758z" stop-color="#000000"/><path d="m1922.3 724.1c-2.8849-5e-5 -5.291 2.4061-5.291 5.291v16.934c0 2.8849 2.4061 5.293 5.291 5.293h14.818v1.0566c0 4.1291-3.281 7.4082-7.4102 7.4082a3.175 3.175 0 0 0-3.1738 3.1758 3.175 3.175 0 0 0 3.1738 3.1758c7.561 5e-5 13.76-6.1988 13.76-13.76v-23.283c0-2.8849-2.408-5.2911-5.293-5.291zm1.0586 6.3496h13.76v14.816h-13.76z" stop-color="#000000"/></g><g transform="matrix(.072318 0 0 .072318 1777.5 641.31)" fill="#b58902" stroke-linecap="round" stroke-linejoin="round" stroke-width="68.594"><path d="m1891.6 724.1c-2.8848 9e-5 -5.291 2.4062-5.291 5.291v16.934c0 2.8848 2.4062 5.2929 5.291 5.293h14.816v1.0566c0 4.1291-3.2791 7.4082-7.4082 7.4082a3.175 3.175 0 0 0-3.1738 3.1758 3.175 3.175 0 0 0 3.1738 3.1758c7.5609-2e-5 13.76-6.1989 13.76-13.76v-23.283c0-2.8849-2.408-5.2911-5.293-5.291zm1.0586 6.3496h13.758v14.816h-13.758z" stop-color="#000000"/><path d="m1922.3 724.1c-2.8849-5e-5 -5.291 2.4061-5.291 5.291v16.934c0 2.8849 2.4061 5.293 5.291 5.293h14.818v1.0566c0 4.1291-3.281 7.4082-7.4102 7.4082a3.175 3.175 0 0 0-3.1738 3.1758 3.175 3.175 0 0 0 3.1738 3.1758c7.561 5e-5 13.76-6.1988 13.76-13.76v-23.283c0-2.8849-2.408-5.2911-5.293-5.291zm1.0586 6.3496h13.76v14.816h-13.76z" stop-color="#000000"/></g></g><rect x="1865.4" y="1131.2" width="110.03" height="11.205" rx="1.0583" ry="1.0583" fill="none" stop-color="#000000" stroke="#819494" stroke-width=".26458" style="font-variation-settings:normal"/></g></g></svg>
