<?xml version="1.0" encoding="UTF-8" standalone="no"?>
<svg
   width="210mm"
   height="148mm"
   viewBox="0 0 210 148.00001"
   version="1.1"
   id="svg8"
   xmlns="http://www.w3.org/2000/svg"
   xmlns:svg="http://www.w3.org/2000/svg"
   xmlns:rdf="http://www.w3.org/1999/02/22-rdf-syntax-ns#"
   xmlns:cc="http://creativecommons.org/ns#"
   xmlns:dc="http://purl.org/dc/elements/1.1/">
  <defs
     id="defs2" />
  <metadata
     id="metadata5">
    <rdf:RDF>
      <cc:Work
         rdf:about="">
        <dc:format>image/svg+xml</dc:format>
        <dc:type
           rdf:resource="http://purl.org/dc/dcmitype/StillImage" />
      </cc:Work>
    </rdf:RDF>
  </metadata>
  <g
     id="layer1"
     transform="translate(-1325.9998,-326.44195)">
    <rect
       style="font-variation-settings:normal;opacity:1;fill:#000000;fill-opacity:1;fill-rule:evenodd;stroke:#b8b8b8;stroke-width:0.793749;stroke-linecap:butt;stroke-linejoin:miter;stroke-miterlimit:4;stroke-dasharray:none;stroke-dashoffset:0;stroke-opacity:1;stop-color:#000000;stop-opacity:1"
       id="rect725"
       width="43.984062"
       height="58.583622"
       x="1343.208"
       y="609.85529"
       rx="1.3229167"
       ry="1.3229166"
       transform="rotate(-9.9253249)" />
    <rect
       style="font-variation-settings:normal;opacity:1;fill:#000000;fill-opacity:1;fill-rule:evenodd;stroke:#b8b8b8;stroke-width:0.793749;stroke-linecap:butt;stroke-linejoin:miter;stroke-miterlimit:4;stroke-dasharray:none;stroke-dashoffset:0;stroke-opacity:1;stop-color:#000000;stop-opacity:1"
       id="rect724"
       width="43.984062"
       height="58.583622"
       x="1473.5425"
       y="197.37807"
       rx="1.3229167"
       ry="1.3229166"
       transform="rotate(6.7714222)" />
    <path
       style="fill:#000000;fill-opacity:0;stroke:#b8b8b8;stroke-width:0.79375;stroke-linecap:round;stroke-linejoin:round;stroke-dasharray:none;stroke-opacity:1;paint-order:normal"
       d="m 1424.9798,366.4701 v 87.68586 c 18.1397,-7.19572 38.2169,-13.26251 58.0738,-16.07748 2.0856,-0.29567 3.7816,-2.2043 3.7816,-4.31081 v -85.45645 c 0,-2.10651 -1.7093,-3.74652 -3.7988,-3.48453 -16.0442,2.01163 -42.9785,12.15191 -58.0566,21.64341 z"
       id="path720" />
    <rect
       style="font-variation-settings:normal;fill:#000000;fill-opacity:1;fill-rule:evenodd;stroke:#b8b8b8;stroke-width:0.79375;stroke-linecap:butt;stroke-linejoin:miter;stroke-miterlimit:4;stroke-dasharray:none;stroke-dashoffset:0;stroke-opacity:1;stop-color:#000000"
       id="rect729"
       width="31.91152"
       height="21.971066"
       x="424.56308"
       y="-1461.4381"
       rx="1.3228463"
       ry="1.322987"
       transform="matrix(0.02725455,0.99962853,-0.99963155,0.02714353,0,0)" />
    <g
       id="g724"
       transform="translate(0,5.2916669)">
      <rect
         style="font-variation-settings:normal;opacity:1;fill:#000000;fill-opacity:1;fill-rule:evenodd;stroke:#b8b8b8;stroke-width:0.79375;stroke-linecap:butt;stroke-linejoin:miter;stroke-miterlimit:4;stroke-dasharray:none;stroke-dashoffset:0;stroke-opacity:1;stop-color:#000000;stop-opacity:1"
         id="rect722"
         width="29.476213"
         height="20.253012"
         x="145.82689"
         y="-1515.8165"
         rx="1.3229167"
         ry="1.3229167"
         transform="rotate(99.413172)" />
      <path
         id="path723"
         style="opacity:1;fill:none;fill-rule:evenodd;stroke:#b8b8b8;stroke-width:0.79375;stop-color:#000000;stop-opacity:1"
         d="m 1449.2578,382.22461 v 12.08789 a 1,1 45 0 0 1,1 h 21.3125 a 1,1 135 0 0 1,-1 v -12.08789 a 1,1 45 0 0 -1,-1 h -21.3125 a 1,1 135 0 0 -1,1 z"
         transform="rotate(99.413172,1453.0844,395.71946)" />
    </g>
    <path
       style="fill:#000000;fill-opacity:1;stroke:#b8b8b8;stroke-width:0.79375;stroke-linecap:round;stroke-linejoin:round;stroke-dasharray:none;stroke-opacity:0.999573;paint-order:normal"
       d="m 1486.8352,431.761 v -34.37158 c -19.2704,8.91114 -37.8934,14.567 -61.8554,19.27358 v 28.68245"
       id="path722" />
    <path
       style="fill:none;fill-opacity:1;stroke:#b8b8b8;stroke-width:0.79375;stroke-linecap:round;stroke-linejoin:round;stroke-dasharray:none;stroke-opacity:1;paint-order:normal"
       d="m 1361.0471,390.7593 -5.9284,-6.10943 a 7.2981304,7.2981304 68.092485 0 1 -2.0605,-5.12359 l 0.1919,-33.97688 c 0.01,-1.64739 1.3335,-2.75918 2.9549,-2.46783 23.8466,4.28481 45.9779,10.86325 67.8996,22.9048 0.484,0.2659 0.8752,0.93145 0.8752,1.48373 v 85.68586 c 0,0.55228 -0.4161,0.83476 -0.9301,0.63271 -18.1462,-7.13341 -38.1808,-13.10921 -57.967,-15.82505 -1.6321,-0.22403 -2.9583,-1.71727 -2.9583,-3.36469 v -38.71599 a 7.3573629,7.3573629 67.930752 0 0 -2.0773,-5.12364 z"
       id="path725" />
  </g>
</svg>
