<svg
	width="100"
	height="100"
	viewBox="0 0 26.5 26.5"
	xmlns="http://www.w3.org/2000/svg"
>
	<path style="fill:#b8b8b8;"
		transform="translate(-9.4 -119.3)"
		d="M19 119.3h7.3c5.3 0 9.6 4.3 9.6 9.6v7.3c0 5.3-4.3 9.6-9.6 9.6H19a9.6 9.6 0 0 1-9.6-9.6v-7.3c0-5.3 4.3-9.6 9.6-9.6z"
	/>
	<path
		transform="rotate(30 218 -77.3)"
		d="M83.7 94.2h4.4c4 0 7.1 3.1 7.1 7.1v4.4c0 4-3.2 7.1-7.1 7.1h-4.4c-4 0-7.1-3.2-7.1-7.1v-4.4c0-4 3.2-7.1 7.1-7.1z"
	/>
	<path style="fill:#b8b8b8;"
		transform="rotate(-30 -227.4 -42)"
		d="M-48 121.5h2.7c1.8 0 3.3 1.5 3.3 3.3v2.7c0 1.8-1.5 3.3-3.3 3.3H-48a3.3 3.3 0 0 1-3.3-3.3v-2.7c0-1.8 1.5-3.3 3.3-3.3z"
	/>
</svg>
