<?xml version="1.0" encoding="UTF-8"?>
<svg width="125.76mm" height="48.338mm" version="1.1" viewBox="0 0 125.76 48.338" xml:space="preserve" xmlns="http://www.w3.org/2000/svg"><g transform="translate(-1791.3 -1367.9)"><rect x="1791.3" y="1367.9" width="125.76" height="48.338" rx="0" ry="0" fill="#012b37" fill-rule="evenodd" stop-color="#000000"/><text x="1813.3959" y="1386.7755" fill="#268bd3" font-family="'Recursive Mono Linear Static'" font-size="5.6444px" letter-spacing="0px" stop-color="#000000" stroke-width="15.115" word-spacing="0px" style="-inkscape-stroke:none;line-height:1;text-decoration-color:#000000;text-decoration-line:none" xml:space="preserve"><tspan x="1813.3959" y="1386.7755" fill="#268bd3" font-family="'Recursive Mono Linear Static'" stroke-width="15.115">let</tspan></text><g transform="translate(-1.981 750.85)"><rect x="1829.5" y="628.82" width="28.041" height="11.205" rx="3.7042" ry="3.7042" fill="none" stop-color="#000000" stroke="#0d414e" stroke-width=".26458" style="font-variation-settings:normal"/><text x="1840.4277" y="635.92834" fill="#d33683" font-family="'Recursive Mono Linear Static'" font-size="5.6444px" letter-spacing="0px" stop-color="#000000" stroke-width="15.115" word-spacing="0px" style="-inkscape-stroke:none;line-height:1;text-decoration-color:#000000;text-decoration-line:none" xml:space="preserve"><tspan x="1840.4277" y="635.92834" fill="#d33683" font-family="'Recursive Mono Linear Static'" stroke-width="15.115">name</tspan></text><g transform="matrix(.059159 0 0 .059159 1728.7 596.07)" fill="#d33683" stroke-linecap="round" stroke-linejoin="round" stroke-width="125.67"><path d="m1799.3 620.91a3.175 3.175 0 0 0-3.1738 3.1758v29.633a3.175 3.175 0 0 0 3.1738 3.1738 3.175 3.175 0 0 0 3.1758-3.1738v-29.633a3.175 3.175 0 0 0-3.1758-3.1758z" stop-color="#000000"/><path transform="matrix(.26458 0 0 .26458 1765.4 615.62)" d="m40 132a12 12 0 0 0-12 12v64a12.001 12.001 0 0 0 12 12h176a12.001 12.001 0 0 0 12-12v-64a12 12 0 0 0-12-12 12 12 0 0 0-12 12v52h-152v-52a12 12 0 0 0-12-12z" stop-color="#000000"/><path transform="matrix(.26458 0 0 .26458 1765.4 615.62)" d="m88 92a12 12 0 0 0-8.4844 3.5156 12 12 0 0 0 0 16.969l40 40a12.001 12.001 0 0 0 16.969 0l40-40a12 12 0 0 0 0-16.969 12 12 0 0 0-16.969 0l-31.516 31.516-31.516-31.516a12 12 0 0 0-8.4844-3.5156z" stop-color="#000000"/></g></g><rect x="1803.1" y="1379.7" width="102.22" height="11.205" rx="5.6025" ry="5.6025" fill="none" stop-color="#000000" stroke="#0d414e" stroke-width=".26458" style="font-variation-settings:normal"/><g transform="matrix(.059335 0 0 .059335 1700.6 1347.8)" fill="#268bd3" stroke-linecap="round" stroke-linejoin="round" stroke-width="172.17"><path d="m1803 629.11a3.175 3.175 0 0 0-3.1758 3.1758 3.175 3.175 0 0 0 3.1758 3.1758h29.633a3.175 3.175 0 0 0 3.1758-3.1758 3.175 3.175 0 0 0-3.1758-3.1758z" stop-color="#000000"/><path d="m1829.1 605.83c-5.6069-9.2e-4 -10.453 4.044-11.455 9.5605l-5.9375 32.66c-0.461 2.5372-2.6283 4.3481-5.2071 4.3477h-7.7481a3.175 3.175 0 0 0-3.1757 3.1738 3.175 3.175 0 0 0 3.1757 3.1758h7.7481c5.6069 9.2e-4 10.455-4.044 11.457-9.5606l5.9356-32.66c0.4609-2.5372 2.6303-4.3461 5.209-4.3457h7.75a3.175 3.175 0 0 0 3.1738-3.1758 3.175 3.175 0 0 0-3.1738-3.1758z" stop-color="#000000"/></g><text x="1813.3959" y="1400.3604" fill="#268bd3" font-family="'Recursive Mono Linear Static'" font-size="5.6444px" letter-spacing="0px" stop-color="#000000" stroke-width="15.115" word-spacing="0px" style="-inkscape-stroke:none;line-height:1;text-decoration-color:#000000;text-decoration-line:none" xml:space="preserve"><tspan x="1813.3959" y="1400.3604" fill="#268bd3" font-family="'Recursive Mono Linear Static'" stroke-width="15.115">greet</tspan></text><rect x="1803.1" y="1393.3" width="63.483" height="11.205" rx="5.6025" ry="5.6025" fill="none" stop-color="#000000" stroke="#0d414e" stroke-width=".26458" style="font-variation-settings:normal"/><g transform="matrix(.059335 0 0 .059335 1700.6 1361.3)" fill="#268bd3" stroke-linecap="round" stroke-linejoin="round" stroke-width="172.17"><path d="m1803 629.11a3.175 3.175 0 0 0-3.1758 3.1758 3.175 3.175 0 0 0 3.1758 3.1758h29.633a3.175 3.175 0 0 0 3.1758-3.1758 3.175 3.175 0 0 0-3.1758-3.1758z" stop-color="#000000"/><path d="m1829.1 605.83c-5.6069-9.2e-4 -10.453 4.044-11.455 9.5605l-5.9375 32.66c-0.461 2.5372-2.6283 4.3481-5.2071 4.3477h-7.7481a3.175 3.175 0 0 0-3.1757 3.1738 3.175 3.175 0 0 0 3.1757 3.1758h7.7481c5.6069 9.2e-4 10.455-4.044 11.457-9.5606l5.9356-32.66c0.4609-2.5372 2.6303-4.3461 5.209-4.3457h7.75a3.175 3.175 0 0 0 3.1738-3.1758 3.175 3.175 0 0 0-3.1738-3.1758z" stop-color="#000000"/></g><g transform="translate(-17.589 690.09)"><text x="1889.7864" y="696.68158" fill="#b58902" font-family="'Recursive Mono Linear Static'" font-size="5.6444px" letter-spacing="0px" stop-color="#000000" stroke-width="15.115" word-spacing="0px" style="-inkscape-stroke:none;line-height:1;text-decoration-color:#000000;text-decoration-line:none" xml:space="preserve"><tspan x="1889.7864" y="696.68158" fill="#b58902" font-family="'Recursive Mono Linear Static'" stroke-width="15.115">world</tspan></text><rect x="1877.7" y="689.58" width="41.008" height="11.205" rx="3.7042" ry="3.7042" fill="none" stop-color="#000000" stroke="#0d414e" stroke-width=".26458" style="font-variation-settings:normal"/><g transform="matrix(-.072318 0 0 -.072318 2022.3 749.05)" fill="#b58902" stroke-linecap="round" stroke-linejoin="round" stroke-width="68.594"><path d="m1891.6 724.1c-2.8848 9e-5 -5.291 2.4062-5.291 5.291v16.934c0 2.8848 2.4062 5.2929 5.291 5.293h14.816v1.0566c0 4.1291-3.2791 7.4082-7.4082 7.4082a3.175 3.175 0 0 0-3.1738 3.1758 3.175 3.175 0 0 0 3.1738 3.1758c7.5609-2e-5 13.76-6.1989 13.76-13.76v-23.283c0-2.8849-2.408-5.2911-5.293-5.291zm1.0586 6.3496h13.758v14.816h-13.758z" stop-color="#000000"/><path d="m1922.3 724.1c-2.8849-5e-5 -5.291 2.4061-5.291 5.291v16.934c0 2.8849 2.4061 5.293 5.291 5.293h14.818v1.0566c0 4.1291-3.281 7.4082-7.4102 7.4082a3.175 3.175 0 0 0-3.1738 3.1758 3.175 3.175 0 0 0 3.1738 3.1758c7.561 5e-5 13.76-6.1988 13.76-13.76v-23.283c0-2.8849-2.408-5.2911-5.293-5.291zm1.0586 6.3496h13.76v14.816h-13.76z" stop-color="#000000"/></g><g transform="matrix(.072318 0 0 .072318 1774 641.31)" fill="#b58902" stroke-linecap="round" stroke-linejoin="round" stroke-width="68.594"><path d="m1891.6 724.1c-2.8848 9e-5 -5.291 2.4062-5.291 5.291v16.934c0 2.8848 2.4062 5.2929 5.291 5.293h14.816v1.0566c0 4.1291-3.2791 7.4082-7.4082 7.4082a3.175 3.175 0 0 0-3.1738 3.1758 3.175 3.175 0 0 0 3.1738 3.1758c7.5609-2e-5 13.76-6.1989 13.76-13.76v-23.283c0-2.8849-2.408-5.2911-5.293-5.291zm1.0586 6.3496h13.758v14.816h-13.758z" stop-color="#000000"/><path d="m1922.3 724.1c-2.8849-5e-5 -5.291 2.4061-5.291 5.291v16.934c0 2.8849 2.4061 5.293 5.291 5.293h14.818v1.0566c0 4.1291-3.281 7.4082-7.4102 7.4082a3.175 3.175 0 0 0-3.1738 3.1758 3.175 3.175 0 0 0 3.1738 3.1758c7.561 5e-5 13.76-6.1988 13.76-13.76v-23.283c0-2.8849-2.408-5.2911-5.293-5.291zm1.0586 6.3496h13.76v14.816h-13.76z" stop-color="#000000"/></g></g><g transform="translate(4.7923 764.43)"><rect x="1829.5" y="628.82" width="28.041" height="11.205" rx="3.7042" ry="3.7042" fill="none" stop-color="#000000" stroke="#0d414e" stroke-width=".26458" style="font-variation-settings:normal"/><text x="1840.4277" y="635.92834" fill="#d33683" font-family="'Recursive Mono Linear Static'" font-size="5.6444px" letter-spacing="0px" stop-color="#000000" stroke-width="15.115" word-spacing="0px" style="-inkscape-stroke:none;line-height:1;text-decoration-color:#000000;text-decoration-line:none" xml:space="preserve"><tspan x="1840.4277" y="635.92834" fill="#d33683" font-family="'Recursive Mono Linear Static'" stroke-width="15.115">name</tspan></text><g transform="matrix(.059159 0 0 .059159 1728.7 596.07)" fill="#d33683" stroke-linecap="round" stroke-linejoin="round" stroke-width="125.67"><path d="m1799.3 620.91a3.175 3.175 0 0 0-3.1738 3.1758v29.633a3.175 3.175 0 0 0 3.1738 3.1738 3.175 3.175 0 0 0 3.1758-3.1738v-29.633a3.175 3.175 0 0 0-3.1758-3.1758z" stop-color="#000000"/><path transform="matrix(.26458 0 0 .26458 1765.4 615.62)" d="m40 132a12 12 0 0 0-12 12v64a12.001 12.001 0 0 0 12 12h176a12.001 12.001 0 0 0 12-12v-64a12 12 0 0 0-12-12 12 12 0 0 0-12 12v52h-152v-52a12 12 0 0 0-12-12z" stop-color="#000000"/><path transform="matrix(.26458 0 0 .26458 1765.4 615.62)" d="m88 92a12 12 0 0 0-8.4844 3.5156 12 12 0 0 0 0 16.969l40 40a12.001 12.001 0 0 0 16.969 0l40-40a12 12 0 0 0 0-16.969 12 12 0 0 0-16.969 0l-31.516 31.516-31.516-31.516a12 12 0 0 0-8.4844-3.5156z" stop-color="#000000"/></g></g></g></svg>
