<?xml version="1.0" encoding="UTF-8" standalone="no"?>
<svg
   width="61.559032mm"
   height="83.308403mm"
   viewBox="0 0 61.559032 83.308407"
   version="1.1"
   id="svg8"
   xml:space="preserve"
   xmlns="http://www.w3.org/2000/svg"
   xmlns:svg="http://www.w3.org/2000/svg"
   xmlns:rdf="http://www.w3.org/1999/02/22-rdf-syntax-ns#"
   xmlns:cc="http://creativecommons.org/ns#"
   xmlns:dc="http://purl.org/dc/elements/1.1/"><defs
     id="defs2" /><metadata
     id="metadata5"><rdf:RDF><cc:Work
         rdf:about=""><dc:format>image/svg+xml</dc:format><dc:type
           rdf:resource="http://purl.org/dc/dcmitype/StillImage" /></cc:Work></rdf:RDF></metadata><g
     id="layer1"
     transform="translate(-1617.3231,-58.237811)"><ellipse
       style="font-variation-settings:normal;opacity:1;fill:#865e3c;fill-opacity:1;fill-rule:evenodd;stroke:#000000;stroke-width:1.32292;stroke-linecap:butt;stroke-linejoin:miter;stroke-miterlimit:4;stroke-dasharray:none;stroke-dashoffset:0;stroke-opacity:1;stop-color:#000000;stop-opacity:1"
       id="ellipse48"
       cx="1649.6826"
       cy="109.02095"
       rx="21.460142"
       ry="22.200298" /><rect
       style="font-variation-settings:normal;fill:#865e3c;fill-opacity:1;fill-rule:evenodd;stroke:#000000;stroke-width:1.32292;stroke-linecap:butt;stroke-linejoin:miter;stroke-miterlimit:4;stroke-dasharray:none;stroke-dashoffset:0;stroke-opacity:1;stop-color:#000000"
       id="rect49"
       width="16.07505"
       height="30.477074"
       x="-1173.7749"
       y="-1162.4062"
       ry="7.6778846"
       transform="matrix(-0.66487619,-0.74695358,-0.74659935,0.66527394,0,0)" /><ellipse
       style="font-variation-settings:normal;opacity:1;fill:#b5835a;fill-opacity:1;fill-rule:evenodd;stroke:#000000;stroke-width:1.32292;stroke-linecap:butt;stroke-linejoin:miter;stroke-miterlimit:4;stroke-dasharray:none;stroke-dashoffset:0;stroke-opacity:1;stop-color:#000000;stop-opacity:1"
       id="ellipse49"
       cx="1649.6826"
       cy="109.02096"
       rx="12.871862"
       ry="14.514107" /><ellipse
       style="font-variation-settings:normal;fill:#b5835a;fill-opacity:1;fill-rule:evenodd;stroke:#000000;stroke-width:1.32292;stroke-linecap:butt;stroke-linejoin:miter;stroke-miterlimit:4;stroke-dasharray:none;stroke-dashoffset:0;stroke-opacity:1;stop-color:#000000"
       id="ellipse50"
       cx="-1165.6979"
       cy="-1138.2563"
       rx="5.6524239"
       ry="3.8565419"
       transform="matrix(-0.66487619,-0.74695358,-0.74659935,0.66527394,0,0)" /><ellipse
       style="font-variation-settings:normal;opacity:1;fill:#865e3c;fill-opacity:1;fill-rule:evenodd;stroke:#000000;stroke-width:1.32292;stroke-linecap:butt;stroke-linejoin:miter;stroke-miterlimit:4;stroke-dasharray:none;stroke-dashoffset:0;stroke-opacity:1;stop-color:#000000;stop-opacity:1"
       id="path78"
       cx="1458.4136"
       cy="-806.39886"
       rx="13.620887"
       ry="6.8697958"
       transform="rotate(31.32428)" /><ellipse
       style="font-variation-settings:normal;opacity:1;fill:#b5835a;fill-opacity:1;fill-rule:evenodd;stroke:#000000;stroke-width:1.32292;stroke-linecap:butt;stroke-linejoin:miter;stroke-miterlimit:4;stroke-dasharray:none;stroke-dashoffset:0;stroke-opacity:1;stop-color:#000000;stop-opacity:1"
       id="ellipse78"
       cx="1458.4136"
       cy="-805.91968"
       rx="9.5334826"
       ry="4.2251959"
       transform="rotate(31.32428)" /><ellipse
       style="font-variation-settings:normal;opacity:1;fill:#865e3c;fill-opacity:1;fill-rule:evenodd;stroke:#000000;stroke-width:1.32292;stroke-linecap:butt;stroke-linejoin:miter;stroke-miterlimit:4;stroke-dasharray:none;stroke-dashoffset:0;stroke-opacity:1;stop-color:#000000;stop-opacity:1"
       id="ellipse55"
       cx="1648.5565"
       cy="86.498611"
       rx="25.189589"
       ry="21.239391" /><ellipse
       style="font-variation-settings:normal;opacity:1;fill:#865e3c;fill-opacity:1;fill-rule:evenodd;stroke:#000000;stroke-width:1.32292;stroke-linecap:butt;stroke-linejoin:miter;stroke-miterlimit:4;stroke-dasharray:none;stroke-dashoffset:0;stroke-opacity:1;stop-color:#000000;stop-opacity:1"
       id="ellipse57"
       cx="547.04852"
       cy="-1574.4564"
       rx="10.123289"
       ry="11.513127"
       transform="rotate(75.336349)" /><ellipse
       style="font-variation-settings:normal;opacity:1;fill:#b5835a;fill-opacity:1;fill-rule:evenodd;stroke:#000000;stroke-width:1.32292;stroke-linecap:butt;stroke-linejoin:miter;stroke-miterlimit:4;stroke-dasharray:none;stroke-dashoffset:0;stroke-opacity:1;stop-color:#000000;stop-opacity:1"
       id="ellipse58"
       cx="547.04852"
       cy="-1573.9274"
       rx="6.6393313"
       ry="7.5801897"
       transform="rotate(75.336349)" /><ellipse
       style="font-variation-settings:normal;opacity:1;vector-effect:none;fill:#000000;fill-opacity:1;fill-rule:evenodd;stroke:none;stroke-width:0.264582;stroke-linecap:butt;stroke-linejoin:miter;stroke-miterlimit:4;stroke-dasharray:none;stroke-dashoffset:0;stroke-opacity:1;stop-color:#000000;stop-opacity:1"
       id="ellipse61"
       cx="1648.0886"
       cy="92.469345"
       rx="3.5981102"
       ry="2.6155386" /><path
       style="fill:#b5835a;fill-opacity:1;stroke:#000000;stroke-width:1.32292;stroke-linecap:round;stroke-linejoin:round;stroke-dasharray:none;stroke-opacity:1;paint-order:stroke markers fill"
       d="m 1648.0361,93.705352 v 4.285125"
       id="path61" /><path
       style="fill:none;fill-opacity:1;stroke:#000000;stroke-width:1.32292;stroke-linecap:round;stroke-linejoin:round;stroke-dasharray:none;stroke-opacity:1;paint-order:stroke markers fill"
       d="m 1643.6602,99.395404 c 2.8779,-1.453011 5.6529,-1.604111 8.2975,-0.104753"
       id="path62" /><path
       style="fill:none;fill-opacity:1;stroke:#000000;stroke-width:1.32292;stroke-linecap:round;stroke-linejoin:round;stroke-dasharray:none;stroke-opacity:1;paint-order:stroke markers fill"
       d="m 1651.0907,78.276111 c 4.2359,2.87671 7.7224,5.696202 9.259,8.366823"
       id="path63" /><path
       style="fill:none;fill-opacity:1;stroke:#000000;stroke-width:1.32292;stroke-linecap:round;stroke-linejoin:round;stroke-dasharray:none;stroke-opacity:1;paint-order:stroke markers fill"
       d="m 1652.6522,86.506581 c 2.6333,-4.170787 5.2665,-6.742405 7.8998,-9.054013"
       id="path64" /><path
       style="fill:none;fill-opacity:1;stroke:#000000;stroke-width:1.32292;stroke-linecap:round;stroke-linejoin:round;stroke-dasharray:none;stroke-opacity:1;paint-order:stroke markers fill"
       d="m 1634.3646,87.685073 c 3.1619,-3.212846 6.3991,-6.180242 10.1135,-7.591558"
       id="path65" /><path
       style="fill:none;fill-opacity:1;stroke:#000000;stroke-width:1.32292;stroke-linecap:round;stroke-linejoin:round;stroke-dasharray:none;stroke-opacity:1;paint-order:stroke markers fill"
       d="m 1634.9502,78.446677 6.8305,7.578667"
       id="path66" /><path
       id="path67"
       style="font-variation-settings:normal;opacity:1;fill:#c0bfbc;fill-opacity:1;fill-rule:evenodd;stroke:#000000;stroke-width:1.32292;stroke-linecap:round;stroke-linejoin:round;stroke-miterlimit:4;stroke-dasharray:none;stroke-dashoffset:0;stroke-opacity:1;stop-color:#000000;stop-opacity:1"
       d="m 1627.5172,58.899272 a 3.4281464,3.4281464 0 0 0 -3.4276,3.428215 3.4281464,3.4281464 0 0 0 0.1322,0.937927 3.4281464,3.4281464 0 0 0 -2.1497,3.172933 3.4281464,3.4281464 0 0 0 0.9049,2.312521 3.4281464,3.4281464 0 0 0 -0.097,0.17725 3.4281464,3.4281464 0 0 0 -0.1953,-0.0062 3.4281464,3.4281464 0 0 0 -3.4282,3.428214 3.4281464,3.4281464 0 0 0 1.8991,3.060796 3.4281464,3.4281464 0 0 0 -0.015,0.221692 3.4281464,3.4281464 0 0 0 3.4282,3.428214 3.4281464,3.4281464 0 0 0 3.3936,-2.94814 3.4281464,3.4281464 0 0 0 0.1467,0.01034 3.4281464,3.4281464 0 0 0 3.2768,-2.427759 3.4281464,3.4281464 0 0 0 2.4593,-3.288171 3.4281464,3.4281464 0 0 0 -0.042,-0.532784 3.4281464,3.4281464 0 0 0 0.1467,0.01033 3.4281464,3.4281464 0 0 0 1.6423,-0.428915 3.4281464,3.4281464 0 0 0 2.5549,1.147734 3.4281464,3.4281464 0 0 0 3.4282,-3.428215 3.4281464,3.4281464 0 0 0 -2.5301,-3.307291 3.4281464,3.4281464 0 0 0 0.021,-0.294556 3.4281464,3.4281464 0 0 0 -3.4282,-3.428215 3.4281464,3.4281464 0 0 0 -2.4779,1.070219 3.4281464,3.4281464 0 0 0 -1.5053,-0.349332 3.4281464,3.4281464 0 0 0 -0.9736,0.14211 3.4281464,3.4281464 0 0 0 -3.1637,-2.108916 z" /><path
       id="circle79"
       style="font-variation-settings:normal;opacity:1;fill:#c0bfbc;fill-opacity:1;fill-rule:evenodd;stroke:#000000;stroke-width:1.32292;stroke-linecap:round;stroke-linejoin:round;stroke-miterlimit:4;stroke-dasharray:none;stroke-dashoffset:0;stroke-opacity:1;stop-color:#000000;stop-opacity:1"
       d="m 1671.8251,96.878351 a 3.4281464,3.4281464 0 0 0 -3.4282,3.427699 3.4281464,3.4281464 0 0 0 0.1023,0.7984 3.4281464,3.4281464 0 0 0 -2.174,3.18172 3.4281464,3.4281464 0 0 0 0.908,2.31562 3.4281464,3.4281464 0 0 0 -0.7199,2.08773 3.4281464,3.4281464 0 0 0 3.4282,3.42821 3.4281464,3.4281464 0 0 0 0.9783,-0.14366 3.4281464,3.4281464 0 0 0 3.3848,2.90318 3.4281464,3.4281464 0 0 0 3.4282,-3.42821 3.4281464,3.4281464 0 0 0 -0.8346,-2.23966 3.4281464,3.4281464 0 0 0 0.2734,-1.3255 3.4281464,3.4281464 0 0 0 -0.6796,-2.04845 3.4281464,3.4281464 0 0 0 1.7286,-2.9683 3.4281464,3.4281464 0 0 0 -3.0742,-3.409608 3.4281464,3.4281464 0 0 0 -3.3213,-2.579171 z" /><path
       id="circle85"
       style="font-variation-settings:normal;opacity:1;fill:#c0bfbc;fill-opacity:1;fill-rule:evenodd;stroke:#000000;stroke-width:1.32292;stroke-linecap:round;stroke-linejoin:round;stroke-miterlimit:4;stroke-dasharray:none;stroke-dashoffset:0;stroke-opacity:1;stop-color:#000000;stop-opacity:1"
       d="m 1641.7531,117.25127 a 3.4281464,3.4281464 0 0 0 -2.8738,1.56166 3.4281464,3.4281464 0 0 0 -2.1497,-0.75913 3.4281464,3.4281464 0 0 0 -3.0613,1.89963 3.4281464,3.4281464 0 0 0 -0.6186,-0.0574 3.4281464,3.4281464 0 0 0 -3.4277,3.42821 3.4281464,3.4281464 0 0 0 1.0775,2.48564 3.4281464,3.4281464 0 0 0 -1.5606,2.87321 3.4281464,3.4281464 0 0 0 3.4282,3.42821 3.4281464,3.4281464 0 0 0 1.6986,-0.45992 3.4281464,3.4281464 0 0 0 3.3217,2.61121 3.4281464,3.4281464 0 0 0 3.2758,-2.42621 3.4281464,3.4281464 0 0 0 2.605,1.202 3.4281464,3.4281464 0 0 0 3.4282,-3.42822 3.4281464,3.4281464 0 0 0 -0.6976,-2.0717 3.4281464,3.4281464 0 0 0 1.1451,-2.55282 3.4281464,3.4281464 0 0 0 -2.3357,-3.24838 3.4281464,3.4281464 0 0 0 0.1731,-1.05782 3.4281464,3.4281464 0 0 0 -3.4282,-3.42821 z" /></g></svg>
